<?xml version="1.0" encoding="UTF-8" standalone="no"?><svg xmlns="http://www.w3.org/2000/svg" xmlns:xlink="http://www.w3.org/1999/xlink" contentStyleType="text/css" height="4964px" preserveAspectRatio="none" style="width:1087px;height:4964px;background:#FFFFFF;" version="1.1" viewBox="0 0 1087 4964" width="1087px" zoomAndPan="magnify"><defs/><g><!--cluster HairDrop--><g id="cluster_HairDrop"><rect fill="none" height="4951" rx="2.5" ry="2.5" style="stroke:#181818;stroke-width:1.0;" width="928" x="153" y="7.2168"/><text fill="#000000" font-family="sans-serif" font-size="20" font-weight="bold" lengthAdjust="spacing" textLength="103" x="565.5" y="27.7813">HairDrop</text></g><g id="elem_US001"><ellipse cx="617.2462" cy="221.066" fill="#F1F1F1" rx="362.2462" ry="74.8492" style="stroke:#181818;stroke-width:0.5;"/><text fill="#000000" font-family="sans-serif" font-size="20" lengthAdjust="spacing" textLength="697" x="268.7462" y="225.9899">Create, edit or delete accounts for clients, hair salons and hair stylists</text></g><g id="elem_US002"><ellipse cx="616.8372" cy="423.3842" fill="#F1F1F1" rx="446.3372" ry="91.6674" style="stroke:#181818;stroke-width:0.5;"/><text fill="#000000" font-family="sans-serif" font-size="20" lengthAdjust="spacing" textLength="867" x="183.3372" y="428.3081">Support and apply authentication and authorization for all its users and functionalities</text></g><g id="elem_US003"><ellipse cx="616.9221" cy="1375.1012" fill="#F1F1F1" rx="234.9221" ry="49.3844" style="stroke:#181818;stroke-width:0.5;"/><text fill="#000000" font-family="sans-serif" font-size="20" lengthAdjust="spacing" textLength="437" x="398.4221" y="1380.025">I want to view the statis of my appointment</text></g><g id="elem_US004"><ellipse cx="616.8756" cy="2925.2919" fill="#F1F1F1" rx="120.8756" ry="26.5751" style="stroke:#181818;stroke-width:0.5;"/><text fill="#000000" font-family="sans-serif" font-size="20" lengthAdjust="spacing" textLength="189" x="519.3756" y="2931.8242">Create my account</text></g><g id="elem_US005"><ellipse cx="617.1599" cy="1514.2488" fill="#F1F1F1" rx="260.6599" ry="54.532" style="stroke:#181818;stroke-width:0.5;"/><text fill="#000000" font-family="sans-serif" font-size="20" lengthAdjust="spacing" textLength="490" x="372.1599" y="1519.1726">I want to receive updates about my appointment</text></g><g id="elem_US006"><ellipse cx="617.1952" cy="3166.4558" fill="#F1F1F1" rx="109.1952" ry="24.239" style="stroke:#181818;stroke-width:0.5;"/><text fill="#000000" font-family="sans-serif" font-size="20" lengthAdjust="spacing" textLength="160" x="534.1952" y="3172.9881">Edit mt account</text></g><g id="elem_US007"><ellipse cx="616.899" cy="1660.2966" fill="#F1F1F1" rx="270.899" ry="56.5798" style="stroke:#181818;stroke-width:0.5;"/><text fill="#000000" font-family="sans-serif" font-size="20" lengthAdjust="spacing" textLength="511" x="361.399" y="1665.2204">I want to receive reminders about my appointment</text></g><g id="elem_US008"><ellipse cx="616.9624" cy="3367.2093" fill="#F1F1F1" rx="120.4624" ry="26.4925" style="stroke:#181818;stroke-width:0.5;"/><text fill="#000000" font-family="sans-serif" font-size="20" lengthAdjust="spacing" textLength="188" x="519.9624" y="3373.7415">Delete my account</text></g><g id="elem_US009"><ellipse cx="617.1762" cy="1836.252" fill="#F1F1F1" rx="410.6762" ry="84.5352" style="stroke:#181818;stroke-width:0.5;"/><text fill="#000000" font-family="sans-serif" font-size="20" lengthAdjust="spacing" textLength="795" x="219.6762" y="1841.1759">I want to receive notifications when my favorite salons/stylists have promotions</text></g><g id="elem_US010"><ellipse cx="617.1333" cy="80.0435" fill="#F1F1F1" rx="139.6333" ry="30.3267" style="stroke:#181818;stroke-width:0.5;"/><text fill="#000000" font-family="sans-serif" font-size="20" lengthAdjust="spacing" textLength="233" x="497.6333" y="86.5757">Access the activity logs</text></g><g id="elem_US011"><ellipse cx="616.9715" cy="2775.4111" fill="#F1F1F1" rx="431.4715" ry="88.6943" style="stroke:#181818;stroke-width:0.5;"/><text fill="#000000" font-family="sans-serif" font-size="20" lengthAdjust="spacing" textLength="837" x="198.4715" y="2780.3349">I want to receive notifications when a client cancels or reschedules an appointment</text></g><g id="elem_US012"><ellipse cx="616.8343" cy="2112.9837" fill="#F1F1F1" rx="174.3343" ry="37.2669" style="stroke:#181818;stroke-width:0.5;"/><text fill="#000000" font-family="sans-serif" font-size="20" lengthAdjust="spacing" textLength="310" x="459.5075" y="2119.1948">Verify my personal information</text></g><g id="elem_US013"><ellipse cx="616.8429" cy="2236.0854" fill="#F1F1F1" rx="237.3429" ry="49.8686" style="stroke:#181818;stroke-width:0.5;"/><text fill="#000000" font-family="sans-serif" font-size="20" lengthAdjust="spacing" textLength="442" x="395.8429" y="2241.0092">I want to make online payments for services</text></g><g id="elem_US014"><ellipse cx="616.9032" cy="2411.3974" fill="#F1F1F1" rx="438.9032" ry="90.1806" style="stroke:#181818;stroke-width:0.5;"/><text fill="#000000" font-family="sans-serif" font-size="20" lengthAdjust="spacing" textLength="852" x="190.9032" y="2416.3213">I want to receive a summary of my appointment and payment receipts after services.</text></g><g id="elem_US015"><ellipse cx="617.1575" cy="608.3483" fill="#F1F1F1" rx="281.1575" ry="58.6315" style="stroke:#181818;stroke-width:0.5;"/><text fill="#000000" font-family="sans-serif" font-size="20" lengthAdjust="spacing" textLength="532" x="351.1575" y="613.2721">I want to leave reviews for a hair salon and hairstylist</text></g><g id="elem_US016"><ellipse cx="616.8242" cy="794.1816" fill="#F1F1F1" rx="447.8242" ry="91.9648" style="stroke:#181818;stroke-width:0.5;"/><text fill="#000000" font-family="sans-serif" font-size="20" lengthAdjust="spacing" textLength="870" x="181.8242" y="799.1055">Search for nearby hair salons and hair stylists by proximity,reviews, services and prices</text></g><g id="elem_US017"><ellipse cx="616.9102" cy="994.1988" fill="#F1F1F1" rx="350.4102" ry="72.482" style="stroke:#181818;stroke-width:0.5;"/><text fill="#000000" font-family="sans-serif" font-size="20" lengthAdjust="spacing" textLength="673" x="280.4102" y="999.1227">I want to save my facorite salons and stylists for quickerr sheduling</text></g><g id="elem_US018"><ellipse cx="616.8509" cy="1140.287" fill="#F1F1F1" rx="180.8509" ry="38.5702" style="stroke:#181818;stroke-width:0.5;"/><text fill="#000000" font-family="sans-serif" font-size="20" lengthAdjust="spacing" textLength="324" x="453.4111" y="1146.042">Schedule a haircut appointment</text></g><g id="elem_US019"><ellipse cx="617.0493" cy="1252.2267" fill="#F1F1F1" rx="178.0493" ry="38.0099" style="stroke:#181818;stroke-width:0.5;"/><text fill="#000000" font-family="sans-serif" font-size="20" lengthAdjust="spacing" textLength="318" x="456.2375" y="1258.1778">Cancel my haircut appointment</text></g><g id="elem_US020"><ellipse cx="616.9475" cy="4216.2063" fill="#F1F1F1" rx="172.9475" ry="36.9895" style="stroke:#181818;stroke-width:0.5;"/><text fill="#000000" font-family="sans-serif" font-size="20" lengthAdjust="spacing" textLength="307" x="460.9216" y="4222.5145">I want to view my sales history</text></g><g id="elem_US021"><ellipse cx="616.759" cy="1998.2686" fill="#F1F1F1" rx="200.759" ry="42.5518" style="stroke:#181818;stroke-width:0.5;"/><text fill="#000000" font-family="sans-serif" font-size="20" lengthAdjust="spacing" textLength="366" x="433.759" y="2003.1924">Reschedule my haircut appointment</text></g><g id="elem_US022"><ellipse cx="616.8752" cy="4467.9918" fill="#F1F1F1" rx="271.8752" ry="56.775" style="stroke:#181818;stroke-width:0.5;"/><text fill="#000000" font-family="sans-serif" font-size="20" lengthAdjust="spacing" textLength="513" x="360.3752" y="4472.9157">I want to analyze reviews for service improvements</text></g><g id="elem_US023"><ellipse cx="616.9081" cy="3265.1984" fill="#F1F1F1" rx="187.9081" ry="39.9816" style="stroke:#181818;stroke-width:0.5;"/><text fill="#000000" font-family="sans-serif" font-size="20" lengthAdjust="spacing" textLength="339" x="446.8487" y="3270.4596">View my upcoming appointments</text></g><g id="elem_US024"><ellipse cx="617.1004" cy="3480.1369" fill="#F1F1F1" rx="245.1004" ry="51.4201" style="stroke:#181818;stroke-width:0.5;"/><text fill="#000000" font-family="sans-serif" font-size="20" lengthAdjust="spacing" textLength="458" x="388.1004" y="3485.0607">View the location of my service appointments</text></g><g id="elem_US025"><ellipse cx="616.7702" cy="2594.3708" fill="#F1F1F1" rx="276.2702" ry="57.654" style="stroke:#181818;stroke-width:0.5;"/><text fill="#000000" font-family="sans-serif" font-size="20" lengthAdjust="spacing" textLength="522" x="355.7702" y="2599.2947">I want to view my earnings from completed services</text></g><g id="elem_US026"><ellipse cx="617.0063" cy="3047.2181" fill="#F1F1F1" rx="288.0063" ry="60.0013" style="stroke:#181818;stroke-width:0.5;"/><text fill="#000000" font-family="sans-serif" font-size="20" lengthAdjust="spacing" textLength="546" x="344.0063" y="3052.1419">Be notified when a change is made to an appointment</text></g><g id="elem_US027"><ellipse cx="617.1056" cy="3740.0379" fill="#F1F1F1" rx="184.6056" ry="39.3211" style="stroke:#181818;stroke-width:0.5;"/><text fill="#000000" font-family="sans-serif" font-size="20" lengthAdjust="spacing" textLength="332" x="450.1438" y="3745.5302">Manage upcoming appointments</text></g><g id="elem_US028"><ellipse cx="617.1598" cy="3860.0487" fill="#F1F1F1" rx="214.6598" ry="45.332" style="stroke:#181818;stroke-width:0.5;"/><text fill="#000000" font-family="sans-serif" font-size="20" lengthAdjust="spacing" textLength="395" x="419.6598" y="3864.9726">I want to register products and services</text></g><g id="elem_US029"><ellipse cx="616.8484" cy="3983.3865" fill="#F1F1F1" rx="198.8484" ry="42.1697" style="stroke:#181818;stroke-width:0.5;"/><text fill="#000000" font-family="sans-serif" font-size="20" lengthAdjust="spacing" textLength="362" x="435.8484" y="3988.3103">Track the location of my hair stylists</text></g><g id="elem_US030"><ellipse cx="616.9628" cy="4102.4094" fill="#F1F1F1" rx="196.4628" ry="41.6926" style="stroke:#181818;stroke-width:0.5;"/><text fill="#000000" font-family="sans-serif" font-size="20" lengthAdjust="spacing" textLength="357" x="438.4628" y="4107.3332">I want to edit products and services</text></g><g id="elem_US031"><ellipse cx="616.9387" cy="4332.2045" fill="#F1F1F1" rx="207.9387" ry="43.9877" style="stroke:#181818;stroke-width:0.5;"/><text fill="#000000" font-family="sans-serif" font-size="20" lengthAdjust="spacing" textLength="381" x="426.4387" y="4337.1284">I want to delete products and serivces</text></g><g id="elem_US032"><ellipse cx="617.0856" cy="4609.1339" fill="#F1F1F1" rx="230.0856" ry="48.4171" style="stroke:#181818;stroke-width:0.5;"/><text fill="#000000" font-family="sans-serif" font-size="20" lengthAdjust="spacing" textLength="427" x="403.5856" y="4614.0577">I want to assign specific services to stylists</text></g><g id="elem_US033"><ellipse cx="617.2059" cy="4756.158" fill="#F1F1F1" rx="302.7059" ry="62.9412" style="stroke:#181818;stroke-width:0.5;"/><text fill="#000000" font-family="sans-serif" font-size="20" lengthAdjust="spacing" textLength="576" x="329.2059" y="4761.0818">I want to manage the availability of my stylists (calendar)</text></g><g id="elem_US034"><ellipse cx="617.0852" cy="4898.0338" fill="#F1F1F1" rx="204.5852" ry="43.317" style="stroke:#181818;stroke-width:0.5;"/><text fill="#000000" font-family="sans-serif" font-size="20" lengthAdjust="spacing" textLength="374" x="430.0852" y="4902.9577">I want to add hair stylists to my salon</text></g><g id="elem_US035"><ellipse cx="616.9061" cy="3616.198" fill="#F1F1F1" rx="235.4061" ry="49.4812" style="stroke:#181818;stroke-width:0.5;"/><text fill="#000000" font-family="sans-serif" font-size="20" lengthAdjust="spacing" textLength="438" x="397.9061" y="3621.1218">I want to remove hair stylists from my salon</text></g><!--entity AD--><g id="elem_AD"><ellipse cx="57.5" cy="188.2168" fill="#FFFFFF" rx="8" ry="8" style="stroke:#FF0000;stroke-width:2.0;"/><path d="M57.5,196.2168 L57.5,223.2168 M44.5,204.2168 L70.5,204.2168 M57.5,223.2168 L44.5,238.2168 M57.5,223.2168 L70.5,238.2168 " fill="none" style="stroke:#FF0000;stroke-width:2.0;"/><text fill="#000000" font-family="sans-serif" font-size="20" lengthAdjust="spacing" textLength="66" x="24.5" y="259.7813">Admin</text></g><!--entity CL--><g id="elem_CL"><ellipse cx="57.5" cy="1715.2168" fill="#FFFFFF" rx="8" ry="8" style="stroke:#0000FF;stroke-width:2.0;"/><path d="M57.5,1723.2168 L57.5,1750.2168 M44.5,1731.2168 L70.5,1731.2168 M57.5,1750.2168 L44.5,1765.2168 M57.5,1750.2168 L70.5,1765.2168 " fill="none" style="stroke:#0000FF;stroke-width:2.0;"/><text fill="#000000" font-family="sans-serif" font-size="20" lengthAdjust="spacing" textLength="59" x="28" y="1786.7813">Client</text></g><!--entity BR--><g id="elem_BR"><ellipse cx="57.5" cy="3074.2168" fill="#FFFFFF" rx="8" ry="8" style="stroke:#008000;stroke-width:2.0;"/><path d="M57.5,3082.2168 L57.5,3109.2168 M44.5,3090.2168 L70.5,3090.2168 M57.5,3109.2168 L44.5,3124.2168 M57.5,3109.2168 L70.5,3124.2168 " fill="none" style="stroke:#008000;stroke-width:2.0;"/><text fill="#000000" font-family="sans-serif" font-size="20" lengthAdjust="spacing" textLength="103" x="6" y="3145.7813">HairStylist</text></g><!--entity S--><g id="elem_S"><ellipse cx="57.5" cy="4009.2168" fill="#FFFFFF" rx="8" ry="8" style="stroke:#800080;stroke-width:2.0;"/><path d="M57.5,4017.2168 L57.5,4044.2168 M44.5,4025.2168 L70.5,4025.2168 M57.5,4044.2168 L44.5,4059.2168 M57.5,4044.2168 L70.5,4059.2168 " fill="none" style="stroke:#800080;stroke-width:2.0;"/><text fill="#000000" font-family="sans-serif" font-size="20" lengthAdjust="spacing" textLength="56" x="29.5" y="4080.7813">Salon</text></g><!--link AD to US001--><g id="link_AD_US001"><path d="M90.88,221.2168 C125.37,221.2168 183.97,221.2168 249.81,221.2168 " fill="none" id="AD-to-US001" style="stroke:#181818;stroke-width:1.0;"/><polygon fill="#181818" points="254.97,221.2168,245.97,217.2168,249.97,221.2168,245.97,225.2168,254.97,221.2168" style="stroke:#181818;stroke-width:1.0;"/></g><!--link AD to US002--><g id="link_AD_US002"><path d="M90.02,264.6368 C104.85,282.1568 123.92,301.0668 145,313.2168 C181.18,334.0668 221.08,350.9668 261.88,364.6668 " fill="none" id="AD-to-US002" style="stroke:#181818;stroke-width:1.0;"/><polygon fill="#181818" points="266.86,366.3168,259.5928,359.6694,262.118,364.7314,257.0561,367.2566,266.86,366.3168" style="stroke:#181818;stroke-width:1.0;"/></g><!--link CL to US003--><g id="link_CL_US003"><path d="M64.81,1705.1668 C76.84,1629.3668 105.41,1476.8268 145,1442.2168 C211.99,1383.6568 306.01,1362.5168 392.44,1357.6768 " fill="none" id="CL-to-US003" style="stroke:#181818;stroke-width:1.0;"/><polygon fill="#181818" points="397.6,1357.4068,388.4059,1353.8757,392.6066,1357.6643,388.818,1361.8651,397.6,1357.4068" style="stroke:#181818;stroke-width:1.0;"/></g><!--link CL to US004--><g id="link_CL_US004"><path d="M58.58,1791.5368 C59.37,1989.5568 67.33,2802.2168 145,2881.2168 C244.9,2982.8168 425.72,2966.9168 531.9,2946.1068 " fill="none" id="CL-to-US004" style="stroke:#181818;stroke-width:1.0;"/><polygon fill="#181818" points="536.9,2945.1168,527.294,2942.9434,531.9955,2946.0891,528.8497,2950.7906,536.9,2945.1168" style="stroke:#181818;stroke-width:1.0;"/></g><!--link S to US004--><g id="link_S_US004"><path d="M60.43,3999.1768 C69.41,3803.5868 108.15,3006.5368 145,2969.2168 C244.97,2867.9668 425.35,2883.6068 531.51,2904.2968 " fill="none" id="S-to-US004" style="stroke:#181818;stroke-width:1.0;"/><polygon fill="#181818" points="536.51,2905.2868,528.4565,2899.6174,531.6049,2904.3172,526.9052,2907.4656,536.51,2905.2868" style="stroke:#181818;stroke-width:1.0;"/></g><!--link BR to US004--><g id="link_BR_US004"><path d="M73.49,3064.0068 C86.98,3032.1368 110.09,2990.7168 145,2969.2168 C255.89,2900.9268 410.12,2900.3568 511.45,2909.8068 " fill="none" id="BR-to-US004" style="stroke:#181818;stroke-width:1.0;"/><polygon fill="#181818" points="516.54,2910.2968,507.9703,2905.443,511.5636,2909.812,507.1946,2913.4053,516.54,2910.2968" style="stroke:#181818;stroke-width:1.0;"/></g><!--link CL to US005--><g id="link_CL_US005"><path d="M69.67,1705.0668 C81.76,1667.4468 104.93,1614.5868 145,1586.2168 C204.67,1543.9768 279.27,1522.3168 351.39,1512.0668 " fill="none" id="CL-to-US005" style="stroke:#181818;stroke-width:1.0;"/><polygon fill="#181818" points="356.58,1511.3468,347.1157,1508.6215,351.6274,1512.0339,348.215,1516.5456,356.58,1511.3468" style="stroke:#181818;stroke-width:1.0;"/></g><!--link CL to US006--><g id="link_CL_US006"><path d="M59.65,1791.4968 C65.91,2019.7568 97.35,3075.2968 145,3124.2168 C247.49,3229.4268 436.77,3208.0968 541.47,3185.7068 " fill="none" id="CL-to-US006" style="stroke:#181818;stroke-width:1.0;"/><polygon fill="#181818" points="546.39,3184.6368,536.7476,3182.6306,541.5031,3185.6942,538.4395,3190.4496,546.39,3184.6368" style="stroke:#181818;stroke-width:1.0;"/></g><!--link S to US006--><g id="link_S_US006"><path d="M59.82,3998.9968 C65.2,3835.7768 88.05,3263.2368 145,3207.2168 C249.4,3104.5168 437.06,3125.0568 541.21,3146.9368 " fill="none" id="S-to-US006" style="stroke:#181818;stroke-width:1.0;"/><polygon fill="#181818" points="546.11,3147.9768,538.1433,3142.1862,541.2202,3146.9331,536.4733,3150.0099,546.11,3147.9768" style="stroke:#181818;stroke-width:1.0;"/></g><!--link BR to US006--><g id="link_BR_US006"><path d="M109.12,3118.0868 C120.86,3120.3568 133.33,3122.5568 145,3124.2168 C268.16,3141.7568 410.55,3153.2568 506.25,3159.7068 " fill="none" id="BR-to-US006" style="stroke:#181818;stroke-width:1.0;"/><polygon fill="#181818" points="511.34,3160.0468,502.6225,3155.4636,506.3508,3159.718,502.0964,3163.4463,511.34,3160.0468" style="stroke:#181818;stroke-width:1.0;"/></g><!--link CL to US007--><g id="link_CL_US007"><path d="M87.33,1743.5168 C104.15,1740.7868 125.77,1737.2868 145,1734.2168 C226.38,1721.2368 315.71,1707.1568 394.49,1694.8068 " fill="none" id="CL-to-US007" style="stroke:#181818;stroke-width:1.0;"/><polygon fill="#181818" points="399.66,1693.9968,390.1508,1691.4325,394.7198,1694.7678,391.3845,1699.3368,399.66,1693.9968" style="stroke:#181818;stroke-width:1.0;"/></g><!--link CL to US008--><g id="link_CL_US008"><path d="M60.11,1791.5168 C69.49,2041.8668 117.7,3293.7968 145,3322.2168 C243.86,3425.1468 425.48,3409.0968 531.98,3388.1468 " fill="none" id="CL-to-US008" style="stroke:#181818;stroke-width:1.0;"/><polygon fill="#181818" points="537,3387.1468,527.3879,3385.0003,532.0982,3388.1329,528.9656,3392.8432,537,3387.1468" style="stroke:#181818;stroke-width:1.0;"/></g><!--link BR to US008--><g id="link_BR_US008"><path d="M62.74,3150.2868 C70.16,3200.3768 90.37,3281.3968 145,3322.2168 C253.22,3403.0868 416.8,3398.6168 519.93,3385.0868 " fill="none" id="BR-to-US008" style="stroke:#181818;stroke-width:1.0;"/><polygon fill="#181818" points="525.11,3384.3968,515.6624,3381.6142,520.1534,3385.0539,516.7137,3389.5448,525.11,3384.3968" style="stroke:#181818;stroke-width:1.0;"/></g><!--link S to US008--><g id="link_S_US008"><path d="M57.78,3998.9768 C56.6,3870.0268 60.56,3492.0968 145,3411.2168 C247.02,3313.4968 424.6,3327.2368 530.13,3346.7668 " fill="none" id="S-to-US008" style="stroke:#181818;stroke-width:1.0;"/><polygon fill="#181818" points="535.1,3347.6968,526.9835,3342.1181,530.1843,3346.7823,525.5202,3349.9831,535.1,3347.6968" style="stroke:#181818;stroke-width:1.0;"/></g><!--link CL to US009--><g id="link_CL_US009"><path d="M87.3,1752.7668 C127.01,1759.0268 203.06,1771.0368 285.37,1784.0268 " fill="none" id="CL-to-US009" style="stroke:#181818;stroke-width:1.0;"/><polygon fill="#181818" points="290.8,1784.8868,282.5396,1779.5235,285.862,1784.1019,281.2836,1787.4243,290.8,1784.8868" style="stroke:#181818;stroke-width:1.0;"/></g><!--link AD to US010--><g id="link_AD_US010"><path d="M87.65,177.9368 C102.53,159.4268 122.3,139.5068 145,128.2168 C249.47,76.2468 382.91,67.1568 481.07,69.3668 " fill="none" id="AD-to-US010" style="stroke:#181818;stroke-width:1.0;"/><polygon fill="#181818" points="486.3,69.4968,477.4058,65.2668,481.3017,69.3683,477.2002,73.2641,486.3,69.4968" style="stroke:#181818;stroke-width:1.0;"/></g><!--link BR to US011--><g id="link_BR_US011"><path d="M62.87,3064.1168 C70.45,3012.7768 90.83,2928.0868 145,2881.2168 C173.36,2856.6768 206.19,2837.4768 241.07,2822.5068 " fill="none" id="BR-to-US011" style="stroke:#181818;stroke-width:1.0;"/><polygon fill="#181818" points="245.78,2820.5168,235.9328,2820.3337,241.174,2822.4622,239.0455,2827.7033,245.78,2820.5168" style="stroke:#181818;stroke-width:1.0;"/></g><!--link CL to US012--><g id="link_CL_US012"><path d="M64.55,1791.3168 C76.25,1868.0468 104.45,2023.5368 145,2058.2168 C233.37,2133.7868 367.6,2142.7168 470.19,2135.5268 " fill="none" id="CL-to-US012" style="stroke:#181818;stroke-width:1.0;"/><polygon fill="#181818" points="475.36,2135.1468,466.0877,2131.8265,470.3738,2135.5183,466.682,2139.8044,475.36,2135.1468" style="stroke:#181818;stroke-width:1.0;"/></g><!--link CL to US013--><g id="link_CL_US013"><path d="M61.25,1791.2968 C68.33,1887.8268 90.61,2116.9768 145,2168.2168 C210.6,2230.0068 305.8,2251.4868 393.48,2255.7868 " fill="none" id="CL-to-US013" style="stroke:#181818;stroke-width:1.0;"/><polygon fill="#181818" points="398.71,2256.0268,389.9026,2251.6188,393.7152,2255.7978,389.5363,2259.6104,398.71,2256.0268" style="stroke:#181818;stroke-width:1.0;"/></g><!--link CL to US014--><g id="link_CL_US014"><path d="M59.19,1791.6068 C61.97,1909.0068 75.87,2229.0068 145,2303.2168 C168.98,2328.9568 197.75,2349.1668 229.08,2364.9568 " fill="none" id="CL-to-US014" style="stroke:#181818;stroke-width:1.0;"/><polygon fill="#181818" points="233.72,2367.2568,227.4203,2359.6862,229.2365,2365.0436,223.8791,2366.8599,233.72,2367.2568" style="stroke:#181818;stroke-width:1.0;"/></g><!--link CL to US015--><g id="link_CL_US015"><path d="M58.93,1705.1168 C61.21,1515.3668 74.68,760.3168 145,684.2168 C195.02,630.0868 267.18,604.3968 340.05,593.9268 " fill="none" id="CL-to-US015" style="stroke:#181818;stroke-width:1.0;"/><polygon fill="#181818" points="345.29,593.2068,335.8268,590.4777,340.3372,593.8919,336.923,598.4023,345.29,593.2068" style="stroke:#181818;stroke-width:1.0;"/></g><!--link CL to US016--><g id="link_CL_US016"><path d="M60.03,1705.0568 C66.21,1541.3468 91.63,964.8568 145,904.2168 C167.38,878.7868 194.41,858.6468 224.05,842.7468 " fill="none" id="CL-to-US016" style="stroke:#181818;stroke-width:1.0;"/><polygon fill="#181818" points="228.83,840.2268,219.0025,840.8749,224.4045,842.5538,222.7256,847.9558,228.83,840.2268" style="stroke:#181818;stroke-width:1.0;"/></g><!--link CL to US017--><g id="link_CL_US017"><path d="M57.81,1705.0068 C56.61,1572.2768 60.29,1174.1068 145,1084.2168 C178.47,1048.7068 221.3,1024.7368 267.45,1008.8868 " fill="none" id="CL-to-US017" style="stroke:#181818;stroke-width:1.0;"/><polygon fill="#181818" points="272.22,1007.2868,262.4127,1006.3825,267.4838,1008.8894,264.9769,1013.9604,272.22,1007.2868" style="stroke:#181818;stroke-width:1.0;"/></g><!--link CL to US018--><g id="link_CL_US018"><path d="M58.81,1705.0868 C60.63,1587.6468 72.27,1266.2968 145,1196.2168 C229.7,1114.5968 366.51,1106.6268 470.92,1115.5268 " fill="none" id="CL-to-US018" style="stroke:#181818;stroke-width:1.0;"/><polygon fill="#181818" points="476.18,1115.9968,467.5692,1111.2162,471.1996,1115.5544,466.8614,1119.1848,476.18,1115.9968" style="stroke:#181818;stroke-width:1.0;"/></g><!--link CL to US019--><g id="link_CL_US019"><path d="M60.73,1704.8768 C66.82,1604.7168 87.33,1361.6668 145,1308.2168 C231.04,1228.4568 367.19,1220.1368 471.03,1228.4368 " fill="none" id="CL-to-US019" style="stroke:#181818;stroke-width:1.0;"/><polygon fill="#181818" points="476.26,1228.8668,467.6221,1224.1353,471.2772,1228.4528,466.9597,1232.1078,476.26,1228.8668" style="stroke:#181818;stroke-width:1.0;"/></g><!--link S to US020--><g id="link_S_US020"><path d="M78.42,4085.4668 C92.98,4111.9068 115.35,4143.8768 145,4161.2168 C236.02,4214.4568 353.86,4228.1868 448.91,4228.6168 " fill="none" id="S-to-US020" style="stroke:#181818;stroke-width:1.0;"/><polygon fill="#181818" points="453.99,4228.6268,445.0015,4224.6011,448.99,4228.6125,444.9786,4232.6011,453.99,4228.6268" style="stroke:#181818;stroke-width:1.0;"/></g><!--link CL to US021--><g id="link_CL_US021"><path d="M65.62,1791.3468 C75.38,1835.7268 97.44,1903.1668 145,1938.2168 C225.02,1997.1968 334.17,2013.9168 427.25,2015.1168 " fill="none" id="CL-to-US021" style="stroke:#181818;stroke-width:1.0;"/><polygon fill="#181818" points="432.51,2015.1668,423.5563,2011.0642,427.5103,2015.1097,423.4649,2019.0637,432.51,2015.1668" style="stroke:#181818;stroke-width:1.0;"/></g><!--link S to US022--><g id="link_S_US022"><path d="M63.22,4085.4468 C73.35,4169.8168 99.96,4351.7968 145,4393.2168 C198.87,4442.7468 271.67,4467.0268 343.93,4477.5668 " fill="none" id="S-to-US022" style="stroke:#181818;stroke-width:1.0;"/><polygon fill="#181818" points="349.13,4478.3068,340.7798,4473.0843,344.1794,4477.6057,339.658,4481.0053,349.13,4478.3068" style="stroke:#181818;stroke-width:1.0;"/></g><!--link BR to US023--><g id="link_BR_US023"><path d="M84.85,3150.4068 C99.83,3171.0868 120.49,3194.1468 145,3207.2168 C230.61,3252.8868 337.14,3268.8168 427.21,3272.6968 " fill="none" id="BR-to-US023" style="stroke:#181818;stroke-width:1.0;"/><polygon fill="#181818" points="432.31,3272.9068,423.4771,3268.5503,427.314,3272.707,423.1573,3276.5439,432.31,3272.9068" style="stroke:#181818;stroke-width:1.0;"/></g><!--link BR to US024--><g id="link_BR_US024"><path d="M64.92,3150.2668 C77.06,3225.6468 105.74,3376.8168 145,3411.2168 C208.33,3466.7068 295.86,3488.9568 378.29,3495.6368 " fill="none" id="BR-to-US024" style="stroke:#181818;stroke-width:1.0;"/><polygon fill="#181818" points="383.71,3496.0568,375.0453,3491.3745,378.7249,3495.6711,374.4283,3499.3507,383.71,3496.0568" style="stroke:#181818;stroke-width:1.0;"/></g><!--link BR to US025--><g id="link_BR_US025"><path d="M60.92,3063.8568 C67.41,2964.2468 88.7,2723.4668 145,2669.2168 C197.26,2618.8568 268.94,2594.1968 340.63,2583.5268 " fill="none" id="BR-to-US025" style="stroke:#181818;stroke-width:1.0;"/><polygon fill="#181818" points="345.79,2582.7868,336.3104,2580.1151,340.8414,2583.5019,337.4546,2588.0329,345.79,2582.7868" style="stroke:#181818;stroke-width:1.0;"/></g><!--link BR to US026--><g id="link_BR_US026"><path d="M109.45,3101.7368 C166.23,3095.6268 262.37,3085.2768 355.73,3075.2268 " fill="none" id="BR-to-US026" style="stroke:#181818;stroke-width:1.0;"/><polygon fill="#181818" points="360.74,3074.6868,351.359,3071.6874,355.7695,3075.2295,352.2274,3079.6401,360.74,3074.6868" style="stroke:#181818;stroke-width:1.0;"/></g><!--link S to US027--><g id="link_S_US027"><path d="M60.5,3998.9868 C65.61,3942.9568 83.42,3846.6068 145,3797.2168 C230.54,3728.6168 354.49,3715.9468 453.76,3719.5968 " fill="none" id="S-to-US027" style="stroke:#181818;stroke-width:1.0;"/><polygon fill="#181818" points="458.77,3719.7968,449.9247,3715.4655,453.7734,3719.6112,449.6277,3723.46,458.77,3719.7968" style="stroke:#181818;stroke-width:1.0;"/></g><!--link S to US028--><g id="link_S_US028"><path d="M78.52,3999.1368 C93.11,3972.7668 115.49,3940.8068 145,3923.2168 C220.73,3878.0668 315.32,3859.6368 399.82,3853.4768 " fill="none" id="S-to-US028" style="stroke:#181818;stroke-width:1.0;"/><polygon fill="#181818" points="404.85,3853.1268,395.5872,3849.7801,399.8628,3853.484,396.1588,3857.7596,404.85,3853.1268" style="stroke:#181818;stroke-width:1.0;"/></g><!--link S to US029--><g id="link_S_US029"><path d="M85.77,4039.3268 C148.24,4032.7168 306.18,4016.0068 433.54,4002.5268 " fill="none" id="S-to-US029" style="stroke:#181818;stroke-width:1.0;"/><polygon fill="#181818" points="438.81,4001.9668,429.4375,3998.9407,433.838,4002.4954,430.2833,4006.8959,438.81,4001.9668" style="stroke:#181818;stroke-width:1.0;"/></g><!--link S to US030--><g id="link_S_US030"><path d="M85.77,4045.1468 C148.67,4051.9168 308.36,4069.1068 436.17,4082.8668 " fill="none" id="S-to-US030" style="stroke:#181818;stroke-width:1.0;"/><polygon fill="#181818" points="441.46,4083.4368,432.9333,4078.5077,436.488,4082.9082,432.0875,4086.4628,441.46,4083.4368" style="stroke:#181818;stroke-width:1.0;"/></g><!--link S to US031--><g id="link_S_US031"><path d="M61.94,4085.6168 C68.6,4138.1468 88.07,4225.1568 145,4270.2168 C222.04,4331.1868 329.36,4348.8468 422.11,4350.2868 " fill="none" id="S-to-US031" style="stroke:#181818;stroke-width:1.0;"/><polygon fill="#181818" points="427.35,4350.3568,418.4081,4346.2286,422.3505,4350.2854,418.2938,4354.2278,427.35,4350.3568" style="stroke:#181818;stroke-width:1.0;"/></g><!--link S to US032--><g id="link_S_US032"><path d="M59.69,4085.5568 C63.63,4195.1568 80.04,4479.1768 145,4542.2168 C212.99,4608.1968 314.61,4628.4968 406.08,4630.8168 " fill="none" id="S-to-US032" style="stroke:#181818;stroke-width:1.0;"/><polygon fill="#181818" points="411.25,4630.9268,402.3318,4626.7476,406.251,4630.8268,402.1718,4634.746,411.25,4630.9268" style="stroke:#181818;stroke-width:1.0;"/></g><!--link S to US033--><g id="link_S_US033"><path d="M58.04,4085.2968 C57.63,4213.8268 63.5,4590.8568 145,4675.2168 C188.81,4720.5568 248.11,4746.1268 309.84,4759.6468 " fill="none" id="S-to-US033" style="stroke:#181818;stroke-width:1.0;"/><polygon fill="#181818" points="315.05,4760.7668,307.0798,4754.9809,310.1595,4759.726,305.4145,4762.8057,315.05,4760.7668" style="stroke:#181818;stroke-width:1.0;"/></g><!--link S to US034--><g id="link_S_US034"><path d="M60.14,4085.3968 C66.53,4243.1668 92.1,4782.1268 145,4836.2168 C220.99,4913.9268 343.54,4928.0568 444.59,4923.4768 " fill="none" id="S-to-US034" style="stroke:#181818;stroke-width:1.0;"/><polygon fill="#181818" points="449.69,4923.2368,440.5065,4919.6781,444.6959,4923.4794,440.8947,4927.6687,449.69,4923.2368" style="stroke:#181818;stroke-width:1.0;"/></g><!--link S to US035--><g id="link_S_US035"><path d="M62.9,3998.9368 C72.57,3912.9868 98.57,3725.4268 145,3683.2168 C211.74,3622.5468 307.24,3601.4468 394.82,3597.1968 " fill="none" id="S-to-US035" style="stroke:#181818;stroke-width:1.0;"/><polygon fill="#181818" points="400.05,3596.9568,390.8763,3593.3732,395.0552,3597.1858,391.2426,3601.3648,400.05,3596.9568" style="stroke:#181818;stroke-width:1.0;"/></g><!--SRC=[dLPHR-Cs37wUVmLnUzc0tYrsshIz0mRqhXisO7kvtErTaPb4g2nvafoUE-o_Zv8TXt7Z15YUGblazv7yIDa_ALCB9ofjvHEMKE9QD3hyQarOgXU4OfPb6jS1WWMdDji0fN8eWx8couGCri6RXx9IvWq83m-FyFtpLWNye9N1zmxBzEVTokhoGy1luVrA2_cqT_oa5PgGF3_zSUIvqWsUTVrDABSChLQ-y__u-SX_un3DsG1BeMr7UddaMJUkrXFOMSnSc8r6YFYFpjRmJmRqQpnAuP5ISYW2NW6MAW3XbAWn80WfRME2XpKzaobjVmLR2W8-4l4WJDdRNLO-SVkwdCtoxuuXbarTMnUIXwXhtO9emfOYAYbYNxeNzCWwzT8zYQX2Qr34WEAu3cxTcDH8eLLGU00iHe2_mxCmIG4xXSz0M4II0dkmQwZQIC8g4wfzBsEC-QcofCDT9OQ3rvDWL6nKEuIcBicNAAzi4wRmRaPXVedrhy8hkCL5E8UavZBLw1pWxIZGOzVe4ndUNOGqDgXrtpqFpzJB66SjTjH1YjafvAUzC4Wcv5CxMzdaC03TZu0Uf4JlKxz8z6gdGWlQRWQ7VFP_c8bUlo25aQXzLBb3BxTODZgsoPogLpvMyL_erBgDUTPKwoX2K8PqMYMimMrQYvLuGh0c3YhKeerWtNYHldTA7lISpo-cAS0tLILS-rhHQLBw-Dtvcd34Ek01wTq0DQrcZIA9AuvGnrEm-H_6txET5WEETRr4uUGs-HlwkshFBn6W0wIKRwgYvb_rw5S3yIuvTrIjwGdnCOCaJCc5cO8CW97PtusYoyGHZIGAPJP3zDjHEhri-c98chTJuhaRRPEal4ZbdDFzsIr6paIVIh0bsjQrUpUwy8xSFW_Ile1Nv5DuWiJTlXmtl-y0g8hQiyEatY5ICHgLdczJIqkxQSFH3qxp4qvnzEbYxow1Jjfxu9CnhY-LZ2HdY07bGEi7Y4uTjrxvQkQAc-D87_UhXCxkjyYMRb8gWAT9Bh6hqycwBev3_KdbtE25OjnEJ_o6-aspIsKl6nbwzOxfZmJtnT7rVwgQ9s_iOb9vwQlWBF9yDkNRVqcClTMEUqzhq7krCU1hb76X7pP0dEiH_tanlNDJxTEDiXDAYvNIyLRffRNV0Jz8cYnJ2lVZ478-IQmShwo8qtQxPN2_dkvdHUCpYf34-Ih6JVPlbj4NwjktFtVVLTmeCle2tHjpRbndIs06VMWU37RiXXiBxhFWFWj-x9ORT_pO7Gzmnu_TCzRvZFdaEJkMytnoda_EMUUSTSwvvPnRpXdGNZrmesrvU4CRaBqf63TQJipWHQH5mGnUDvfXPl2259m13GmpE0EICJFctE0z9Lty1m00]--></g></svg>