<svg version="1.1" id="Layer_1" xmlns="http://www.w3.org/2000/svg" xmlns:xlink="http://www.w3.org/1999/xlink" x="0px"
	y="0px" width="100%" viewBox="0 0 390 110" enable-background="new 0 0 390 110" xml:space="preserve">
	<path fill="#f9f9f9" opacity="0" stroke="none" d="
M282.000000,111.000000 
	C188.000015,111.000000 94.500023,111.000000 1.000025,111.000000 
	C1.000017,74.333351 1.000017,37.666698 1.000008,1.000035 
	C130.999969,1.000023 260.999939,1.000023 390.999939,1.000012 
	C390.999939,37.666630 390.999939,74.333260 390.999969,110.999947 
	C354.833344,111.000000 318.666656,111.000000 282.000000,111.000000 
M21.097893,84.007896 
	C28.027952,84.007896 34.958012,84.007896 41.734783,84.007896 
	C40.139927,81.790382 38.168800,80.300491 38.077641,78.703316 
	C37.711040,72.280045 37.925907,65.823593 37.925907,59.329498 
	C43.113770,59.329498 47.838299,59.329498 52.864620,59.329498 
	C52.864620,64.759033 52.829105,69.896263 52.877155,75.032715 
	C52.908978,78.434624 53.437710,82.007706 49.067951,83.490868 
	C56.728874,83.490868 64.389793,83.490868 70.696342,83.490868 
	C69.807053,80.934807 68.300667,78.547157 68.249367,76.128632 
	C67.998566,64.305191 67.974426,52.469753 68.250679,40.647449 
	C68.318672,37.737431 69.812653,34.860737 70.638931,32.010635 
	C64.309402,32.010635 56.624100,32.010635 48.921612,32.010635 
	C50.338287,33.719898 52.566170,35.165791 52.667698,36.748116 
	C53.079834,43.171268 52.839027,49.636314 52.839027,56.222851 
	C47.665894,56.222851 43.044983,56.222851 37.912563,56.222851 
	C37.912563,50.805531 37.632687,45.498676 38.027107,40.242416 
	C38.233578,37.490902 39.623898,34.828220 40.451653,32.213585 
	C34.104416,32.213585 26.326797,32.213585 19.802876,32.213585 
	C20.708796,34.609016 22.254076,36.854256 22.302265,39.131187 
	C22.552505,50.954681 22.433374,62.786278 22.414640,74.615005 
	C22.409126,78.096329 23.363138,82.042503 18.481554,83.733528 
	C19.065552,83.824142 19.649549,83.914757 21.097893,84.007896 
M205.470520,84.004211 
	C211.824677,83.033173 218.492584,82.965355 224.463608,80.891304 
	C234.885483,77.271240 239.577118,68.748314 239.645676,57.996544 
	C239.714310,47.234592 234.918686,39.108727 224.796326,34.731125 
	C212.575348,29.445944 199.768799,32.572960 186.672134,32.247139 
	C192.040421,33.627831 190.893311,37.526039 190.903427,40.852772 
	C190.935806,51.503609 190.952209,62.154800 190.895935,72.805443 
	C190.874847,76.795891 192.324677,81.371384 187.155136,84.004158 
	C192.930313,84.004158 198.705475,84.004158 205.470520,84.004211 
M354.690002,100.973557 
	C353.729797,99.796875 352.050262,98.682671 351.941650,97.432007 
	C351.588257,93.363792 351.809418,89.245667 351.809418,85.179848 
	C371.184601,84.758598 379.613892,75.587936 377.021423,58.302979 
	C375.100281,45.493931 363.605133,40.620365 353.043671,48.126301 
	C352.796600,48.301903 352.426117,48.303841 352.127106,48.383083 
	C351.810120,47.170132 351.498627,45.978199 351.212189,44.882111 
	C344.942627,45.863800 339.029541,46.789669 334.428528,47.510098 
	C335.327881,50.607666 336.716095,53.257050 336.767975,55.932365 
	C337.007050,68.250679 337.023315,80.579308 336.770569,92.897072 
	C336.705505,96.067245 335.372894,99.211403 334.519836,102.799667 
	C337.146118,102.799667 340.897491,102.935036 344.634430,102.760231 
	C348.121613,102.597092 351.593384,102.104408 354.690002,100.973557 
M318.380920,46.937881 
	C317.154541,46.437511 315.967896,45.774967 314.695312,45.462990 
	C306.171753,43.373386 298.020782,43.955547 291.430359,50.344296 
	C285.663177,55.934994 284.677094,63.138565 286.594849,70.652512 
	C288.867950,79.558601 296.284698,84.801445 306.319122,85.049316 
	C316.802094,85.308273 324.773468,80.434525 327.644958,72.010551 
	C330.883820,62.508900 327.700226,53.285740 318.380920,46.937881 
M77.324272,78.657364 
	C81.917130,86.864807 89.280876,87.398407 98.641769,80.202103 
	C103.641113,86.853348 112.484772,86.483978 116.029663,80.920265 
	C114.821625,77.781845 113.476967,75.744392 113.331787,73.624779 
	C112.968353,68.318764 113.618851,62.914417 112.937500,57.669701 
	C112.516899,54.432121 111.104393,50.744972 108.904907,48.430973 
	C103.434280,42.675529 87.560928,42.924095 82.013733,48.661709 
	C80.559731,50.165619 79.504517,53.369404 80.109589,55.174660 
	C80.697418,56.928444 83.498100,58.476303 85.610870,59.028316 
	C87.612144,59.551189 89.981705,58.664509 92.042297,58.415493 
	C92.042297,54.840023 91.812988,52.020973 92.158821,49.274342 
	C92.291145,48.223324 93.583061,46.967808 94.647072,46.520844 
	C95.250298,46.267445 97.196655,47.369160 97.280472,48.022018 
	C97.805069,52.108101 98.475151,56.305462 97.947594,60.314732 
	C97.796158,61.465588 93.866226,62.170650 91.633125,62.982075 
	C89.296318,63.831181 86.838242,64.383728 84.570816,65.379379 
	C78.440865,68.071098 76.739548,71.044388 77.324272,78.657364 
M172.251816,58.284618 
	C172.534851,58.820129 172.976578,59.851357 173.077774,59.818954 
	C175.915848,58.910343 179.947845,58.671932 181.203049,56.689484 
	C182.620605,54.450592 182.527924,50.092117 181.217392,47.669544 
	C180.227676,45.840023 176.220749,44.713863 173.683884,44.911015 
	C171.139908,45.108719 168.760269,47.347218 166.290833,48.657772 
	C165.921448,48.853802 165.454865,48.866657 165.007278,48.970264 
	C164.767487,47.544693 164.554825,46.280399 164.341415,45.011627 
	C158.140594,45.929428 152.184586,46.810993 147.495193,47.505081 
	C148.314972,50.878780 149.540421,53.999233 149.744522,57.185112 
	C150.105820,62.825253 150.106064,68.521812 149.744949,74.161957 
	C149.541336,77.341949 148.314316,80.456413 147.571747,83.504189 
	C154.180161,83.504189 162.022995,83.504189 169.041473,83.504189 
	C167.596649,81.368202 165.085785,79.323410 164.919800,77.103310 
	C164.387299,69.980759 164.545807,62.785488 164.865387,55.637402 
	C164.932190,54.142979 166.598053,52.394451 167.991180,51.441605 
	C168.566360,51.048199 170.828064,52.131607 171.484848,53.107319 
	C172.234390,54.220860 172.050079,55.963005 172.251816,58.284618 
M266.970917,84.011520 
	C267.637634,83.830360 268.304382,83.649200 268.330933,83.641975 
	C266.712006,81.535683 264.073944,79.673691 263.932281,77.637993 
	C263.413422,70.180672 263.544983,62.657341 263.886505,55.179638 
	C263.949493,53.800064 266.126709,52.517040 267.328064,51.189453 
	C268.577118,52.426323 270.210785,53.469223 270.961334,54.957489 
	C271.640381,56.304031 271.355316,58.136772 271.498535,59.791920 
	C275.937408,60.581093 279.339081,59.649372 281.215271,55.457382 
	C282.746643,52.035793 282.294800,48.612274 279.489349,46.323048 
	C273.649536,41.557785 269.067566,46.242111 264.101654,49.278164 
	C263.802795,47.665527 263.553711,46.321369 263.306396,44.986656 
	C257.071930,45.925163 251.128922,46.819798 246.331650,47.541958 
	C247.215744,50.783493 248.525635,53.736950 248.737534,56.767189 
	C249.119949,62.235577 248.843613,67.749886 248.846420,73.245018 
	C248.848373,77.051453 249.732635,81.157654 245.339188,84.013229 
	C252.249664,84.013229 259.160156,84.013229 266.970917,84.011520 
M140.736374,81.847778 
	C140.073959,79.964081 138.877090,78.091125 138.839005,76.194893 
	C138.644501,66.508797 138.749130,56.816696 138.749130,45.764160 
	C132.383133,52.189575 126.200325,46.805061 121.298271,46.998039 
	C122.280907,50.059559 123.610779,52.509876 123.766396,55.032631 
	C124.113556,60.660664 123.902336,66.325043 123.865105,71.974258 
	C123.837402,76.177345 125.152031,80.801491 120.033646,83.670090 
	C127.029778,84.006363 133.635864,84.044739 140.239059,83.924400 
	C140.704269,83.915916 141.148163,82.736320 140.736374,81.847778 
M119.937141,23.314730 
	C123.241829,29.001276 126.546516,34.687824 130.035309,40.691170 
	C133.302734,36.344540 135.833221,32.857712 138.492249,29.471809 
	C141.732437,25.345842 142.127228,21.082178 139.361420,16.606844 
	C136.601395,12.140862 132.321396,11.295488 127.620720,12.165100 
	C123.199776,12.982965 120.451378,16.914717 119.937141,23.314730 
z" />
	<path fill="#f9f9f9" opacity="1.000000" stroke="none" d="
M20.665720,84.006638 
	C19.649549,83.914757 19.065552,83.824142 18.481554,83.733528 
	C23.363138,82.042503 22.409126,78.096329 22.414640,74.615005 
	C22.433374,62.786278 22.552505,50.954681 22.302265,39.131187 
	C22.254076,36.854256 20.708796,34.609016 19.802876,32.213585 
	C26.326797,32.213585 34.104416,32.213585 40.451653,32.213585 
	C39.623898,34.828220 38.233578,37.490902 38.027107,40.242416 
	C37.632687,45.498676 37.912563,50.805531 37.912563,56.222851 
	C43.044983,56.222851 47.665894,56.222851 52.839027,56.222851 
	C52.839027,49.636314 53.079834,43.171268 52.667698,36.748116 
	C52.566170,35.165791 50.338287,33.719898 48.921612,32.010635 
	C56.624100,32.010635 64.309402,32.010635 70.638931,32.010635 
	C69.812653,34.860737 68.318672,37.737431 68.250679,40.647449 
	C67.974426,52.469753 67.998566,64.305191 68.249367,76.128632 
	C68.300667,78.547157 69.807053,80.934807 70.696342,83.490868 
	C64.389793,83.490868 56.728874,83.490868 49.067951,83.490868 
	C53.437710,82.007706 52.908978,78.434624 52.877155,75.032715 
	C52.829105,69.896263 52.864620,64.759033 52.864620,59.329498 
	C47.838299,59.329498 43.113770,59.329498 37.925907,59.329498 
	C37.925907,65.823593 37.711040,72.280045 38.077641,78.703316 
	C38.168800,80.300491 40.139927,81.790382 41.734783,84.007896 
	C34.958012,84.007896 28.027952,84.007896 20.665720,84.006638 
z" />
	<path fill="#f9f9f9" opacity="1.000000" stroke="none" d="
M204.975586,84.004181 
	C198.705475,84.004158 192.930313,84.004158 187.155136,84.004158 
	C192.324677,81.371384 190.874847,76.795891 190.895935,72.805443 
	C190.952209,62.154800 190.935806,51.503609 190.903427,40.852772 
	C190.893311,37.526039 192.040421,33.627831 186.672134,32.247139 
	C199.768799,32.572960 212.575348,29.445944 224.796326,34.731125 
	C234.918686,39.108727 239.714310,47.234592 239.645676,57.996544 
	C239.577118,68.748314 234.885483,77.271240 224.463608,80.891304 
	C218.492584,82.965355 211.824677,83.033173 204.975586,84.004181 
M216.957230,36.383324 
	C213.627289,35.384567 210.297333,34.385807 206.472168,33.238514 
	C206.472168,50.018723 206.472168,65.538391 206.472168,81.017540 
	C214.747513,82.339607 220.478317,79.362038 221.571472,71.195946 
	C222.739807,62.468258 222.187302,53.447350 221.673386,44.595814 
	C221.520157,41.956631 218.969635,39.456638 216.957230,36.383324 
z" />
	<path fill="#f9f9f9" opacity="1.000000" stroke="none" d="
M354.880981,101.365173 
	C351.593384,102.104408 348.121613,102.597092 344.634430,102.760231 
	C340.897491,102.935036 337.146118,102.799667 334.519836,102.799667 
	C335.372894,99.211403 336.705505,96.067245 336.770569,92.897072 
	C337.023315,80.579308 337.007050,68.250679 336.767975,55.932365 
	C336.716095,53.257050 335.327881,50.607666 334.428528,47.510098 
	C339.029541,46.789669 344.942627,45.863800 351.212189,44.882111 
	C351.498627,45.978199 351.810120,47.170132 352.127106,48.383083 
	C352.426117,48.303841 352.796600,48.301903 353.043671,48.126301 
	C363.605133,40.620365 375.100281,45.493931 377.021423,58.302979 
	C379.613892,75.587936 371.184601,84.758598 351.809418,85.179848 
	C351.809418,89.245667 351.588257,93.363792 351.941650,97.432007 
	C352.050262,98.682671 353.729797,99.796875 354.880981,101.365173 
M357.140076,49.251244 
	C354.088104,49.143383 351.821442,50.226913 351.781555,53.597610 
	C351.677551,62.380997 351.667145,71.167404 351.783752,79.950424 
	C351.823273,82.927002 354.525726,84.223679 356.904846,82.350716 
	C358.247131,81.294029 359.725494,79.513306 359.848785,77.956329 
	C360.468231,70.132202 360.846649,62.274384 360.850311,54.428181 
	C360.851074,52.817425 358.889526,51.205753 357.140076,49.251244 
z" />
	<path fill="#f9f9f9" opacity="1.000000" stroke="none" d="
M318.732086,47.072201 
	C327.700226,53.285740 330.883820,62.508900 327.644958,72.010551 
	C324.773468,80.434525 316.802094,85.308273 306.319122,85.049316 
	C296.284698,84.801445 288.867950,79.558601 286.594849,70.652512 
	C284.677094,63.138565 285.663177,55.934994 291.430359,50.344296 
	C298.020782,43.955547 306.171753,43.373386 314.695312,45.462990 
	C315.967896,45.774967 317.154541,46.437511 318.732086,47.072201 
M313.023743,70.233612 
	C312.315399,63.515350 311.789398,56.768597 310.747833,50.102402 
	C310.534546,48.737427 308.538452,47.040646 307.081421,46.697594 
	C306.129608,46.473488 303.976013,48.175362 303.543610,49.424141 
	C299.940430,59.829514 300.145203,70.320992 304.279419,80.498825 
	C305.791260,84.220757 309.214935,84.047104 310.807739,80.276237 
	C312.007446,77.435944 312.293945,74.209915 313.023743,70.233612 
z" />
	<path fill="#f9f9f9" opacity="1.000000" stroke="none" d="
M77.210785,78.266876 
	C76.739548,71.044388 78.440865,68.071098 84.570816,65.379379 
	C86.838242,64.383728 89.296318,63.831181 91.633125,62.982075 
	C93.866226,62.170650 97.796158,61.465588 97.947594,60.314732 
	C98.475151,56.305462 97.805069,52.108101 97.280472,48.022018 
	C97.196655,47.369160 95.250298,46.267445 94.647072,46.520844 
	C93.583061,46.967808 92.291145,48.223324 92.158821,49.274342 
	C91.812988,52.020973 92.042297,54.840023 92.042297,58.415493 
	C89.981705,58.664509 87.612144,59.551189 85.610870,59.028316 
	C83.498100,58.476303 80.697418,56.928444 80.109589,55.174660 
	C79.504517,53.369404 80.559731,50.165619 82.013733,48.661709 
	C87.560928,42.924095 103.434280,42.675529 108.904907,48.430973 
	C111.104393,50.744972 112.516899,54.432121 112.937500,57.669701 
	C113.618851,62.914417 112.968353,68.318764 113.331787,73.624779 
	C113.476967,75.744392 114.821625,77.781845 116.029663,80.920265 
	C112.484772,86.483978 103.641113,86.853348 98.641769,80.202103 
	C89.280876,87.398407 81.917130,86.864807 77.210785,78.266876 
M98.416451,68.562866 
	C98.340485,66.996468 98.264519,65.430069 98.183319,63.755753 
	C91.749077,65.851662 88.416870,71.104446 90.520813,76.149986 
	C91.168373,77.702942 93.442551,79.203079 95.147057,79.433868 
	C96.039536,79.554710 97.792938,77.019791 98.284599,75.416550 
	C98.839874,73.605865 98.415115,71.494644 98.416451,68.562866 
z" />
	<path fill="#f9f9f9" opacity="1.000000" stroke="none" d="
M172.261719,57.858292 
	C172.050079,55.963005 172.234390,54.220860 171.484848,53.107319 
	C170.828064,52.131607 168.566360,51.048199 167.991180,51.441605 
	C166.598053,52.394451 164.932190,54.142979 164.865387,55.637402 
	C164.545807,62.785488 164.387299,69.980759 164.919800,77.103310 
	C165.085785,79.323410 167.596649,81.368202 169.041473,83.504189 
	C162.022995,83.504189 154.180161,83.504189 147.571747,83.504189 
	C148.314316,80.456413 149.541336,77.341949 149.744949,74.161957 
	C150.106064,68.521812 150.105820,62.825253 149.744522,57.185112 
	C149.540421,53.999233 148.314972,50.878780 147.495193,47.505081 
	C152.184586,46.810993 158.140594,45.929428 164.341415,45.011627 
	C164.554825,46.280399 164.767487,47.544693 165.007278,48.970264 
	C165.454865,48.866657 165.921448,48.853802 166.290833,48.657772 
	C168.760269,47.347218 171.139908,45.108719 173.683884,44.911015 
	C176.220749,44.713863 180.227676,45.840023 181.217392,47.669544 
	C182.527924,50.092117 182.620605,54.450592 181.203049,56.689484 
	C179.947845,58.671932 175.915848,58.910343 173.077774,59.818954 
	C172.976578,59.851357 172.534851,58.820129 172.261719,57.858292 
z" />
	<path fill="#f9f9f9" opacity="1.000000" stroke="none" d="
M266.520752,84.012375 
	C259.160156,84.013229 252.249664,84.013229 245.339188,84.013229 
	C249.732635,81.157654 248.848373,77.051453 248.846420,73.245018 
	C248.843613,67.749886 249.119949,62.235577 248.737534,56.767189 
	C248.525635,53.736950 247.215744,50.783493 246.331650,47.541958 
	C251.128922,46.819798 257.071930,45.925163 263.306396,44.986656 
	C263.553711,46.321369 263.802795,47.665527 264.101654,49.278164 
	C269.067566,46.242111 273.649536,41.557785 279.489349,46.323048 
	C282.294800,48.612274 282.746643,52.035793 281.215271,55.457382 
	C279.339081,59.649372 275.937408,60.581093 271.498535,59.791920 
	C271.355316,58.136772 271.640381,56.304031 270.961334,54.957489 
	C270.210785,53.469223 268.577118,52.426323 267.328064,51.189453 
	C266.126709,52.517040 263.949493,53.800064 263.886505,55.179638 
	C263.544983,62.657341 263.413422,70.180672 263.932281,77.637993 
	C264.073944,79.673691 266.712006,81.535683 268.330933,83.641975 
	C268.304382,83.649200 267.637634,83.830360 266.520752,84.012375 
z" />
	<path fill="#f9f9f9" opacity="1.000000" stroke="none" d="
M141.169159,81.974541 
	C141.148163,82.736320 140.704269,83.915916 140.239059,83.924400 
	C133.635864,84.044739 127.029778,84.006363 120.033646,83.670090 
	C125.152031,80.801491 123.837402,76.177345 123.865105,71.974258 
	C123.902336,66.325043 124.113556,60.660664 123.766396,55.032631 
	C123.610779,52.509876 122.280907,50.059559 121.298271,46.998039 
	C126.200325,46.805061 132.383133,52.189575 138.749130,45.764160 
	C138.749130,56.816696 138.644501,66.508797 138.839005,76.194893 
	C138.877090,78.091125 140.073959,79.964081 141.169159,81.974541 
z" />
	<path fill="#9e4949" opacity="1.000000" stroke="none" d="
M119.936447,22.901016 
	C120.451378,16.914717 123.199776,12.982965 127.620720,12.165100 
	C132.321396,11.295488 136.601395,12.140862 139.361420,16.606844 
	C142.127228,21.082178 141.732437,25.345842 138.492249,29.471809 
	C135.833221,32.857712 133.302734,36.344540 130.035309,40.691170 
	C126.546516,34.687824 123.241829,29.001276 119.936447,22.901016 
M131.342392,18.737671 
	C129.746658,19.942757 127.877075,20.943514 126.728859,22.482491 
	C126.401649,22.921049 127.957451,25.722984 129.030777,26.008430 
	C130.411392,26.375605 133.525742,25.330851 133.537216,24.839251 
	C133.582626,22.895819 132.707275,20.930876 131.342392,18.737671 
z" />
	<path fill="#F7F7F7" opacity="0" stroke="none" d="
M217.237366,36.638100 
	C218.969635,39.456638 221.520157,41.956631 221.673386,44.595814 
	C222.187302,53.447350 222.739807,62.468258 221.571472,71.195946 
	C220.478317,79.362038 214.747513,82.339607 206.472168,81.017540 
	C206.472168,65.538391 206.472168,50.018723 206.472168,33.238514 
	C210.297333,34.385807 213.627289,35.384567 217.237366,36.638100 
z" />
	<path fill="#FAFAFA" opacity="0" stroke="none" d="
M357.486267,49.422874 
	C358.889526,51.205753 360.851074,52.817425 360.850311,54.428181 
	C360.846649,62.274384 360.468231,70.132202 359.848785,77.956329 
	C359.725494,79.513306 358.247131,81.294029 356.904846,82.350716 
	C354.525726,84.223679 351.823273,82.927002 351.783752,79.950424 
	C351.667145,71.167404 351.677551,62.380997 351.781555,53.597610 
	C351.821442,50.226913 354.088104,49.143383 357.486267,49.422874 
z" />
	<path fill="#F7F7F7" opacity="0" stroke="none" d="
M313.005371,70.694603 
	C312.293945,74.209915 312.007446,77.435944 310.807739,80.276237 
	C309.214935,84.047104 305.791260,84.220757 304.279419,80.498825 
	C300.145203,70.320992 299.940430,59.829514 303.543610,49.424141 
	C303.976013,48.175362 306.129608,46.473488 307.081421,46.697594 
	C308.538452,47.040646 310.534546,48.737427 310.747833,50.102402 
	C311.789398,56.768597 312.315399,63.515350 313.005371,70.694603 
z" />
	<path fill="#F4F4F4" opacity="0" stroke="none" d="
M98.416504,69.038498 
	C98.415115,71.494644 98.839874,73.605865 98.284599,75.416550 
	C97.792938,77.019791 96.039536,79.554710 95.147057,79.433868 
	C93.442551,79.203079 91.168373,77.702942 90.520813,76.149986 
	C88.416870,71.104446 91.749077,65.851662 98.183319,63.755753 
	C98.264519,65.430069 98.340485,66.996468 98.416504,69.038498 
z" />
	<path fill="#F1F1F1" opacity="0" stroke="none" d="
M131.757904,18.855791 
	C132.707275,20.930876 133.582626,22.895819 133.537216,24.839251 
	C133.525742,25.330851 130.411392,26.375605 129.030777,26.008430 
	C127.957451,25.722984 126.401649,22.921049 126.728859,22.482491 
	C127.877075,20.943514 129.746658,19.942757 131.757904,18.855791 
z" />
</svg>