<?xml version="1.0" encoding="UTF-8" standalone="no"?><svg xmlns="http://www.w3.org/2000/svg" xmlns:xlink="http://www.w3.org/1999/xlink" contentStyleType="text/css" height="5001px" preserveAspectRatio="none" style="width:1087px;height:5001px;background:#FFFFFF;" version="1.1" viewBox="0 0 1087 5001" width="1087px" zoomAndPan="magnify"><defs/><g><text fill="#000000" font-family="sans-serif" font-size="14" font-weight="bold" lengthAdjust="spacing" textLength="143" x="465" y="22.9951">Use Case Diagram</text><!--cluster HairDrop--><g id="cluster_HairDrop"><rect fill="none" height="4951" rx="2.5" ry="2.5" style="stroke:#181818;stroke-width:1.0;" width="928" x="153" y="44.5137"/><text fill="#000000" font-family="sans-serif" font-size="20" font-weight="bold" lengthAdjust="spacing" textLength="103" x="565.5" y="65.0781">HairDrop</text></g><g id="elem_US001"><ellipse cx="617.2462" cy="258.3629" fill="#F1F1F1" rx="362.2462" ry="74.8492" style="stroke:#181818;stroke-width:0.5;"/><text fill="#000000" font-family="sans-serif" font-size="20" lengthAdjust="spacing" textLength="697" x="268.7462" y="263.2867">Create, edit or delete accounts for clients, hair salons and hair stylists</text></g><g id="elem_US002"><ellipse cx="616.8372" cy="460.6811" fill="#F1F1F1" rx="446.3372" ry="91.6674" style="stroke:#181818;stroke-width:0.5;"/><text fill="#000000" font-family="sans-serif" font-size="20" lengthAdjust="spacing" textLength="867" x="183.3372" y="465.6049">Support and apply authentication and authorization for all its users and functionalities</text></g><g id="elem_US003"><ellipse cx="616.9221" cy="1412.3981" fill="#F1F1F1" rx="234.9221" ry="49.3844" style="stroke:#181818;stroke-width:0.5;"/><text fill="#000000" font-family="sans-serif" font-size="20" lengthAdjust="spacing" textLength="437" x="398.4221" y="1417.3219">I want to view the statis of my appointment</text></g><g id="elem_US004"><ellipse cx="616.8756" cy="2962.5888" fill="#F1F1F1" rx="120.8756" ry="26.5751" style="stroke:#181818;stroke-width:0.5;"/><text fill="#000000" font-family="sans-serif" font-size="20" lengthAdjust="spacing" textLength="189" x="519.3756" y="2969.121">Create my account</text></g><g id="elem_US005"><ellipse cx="617.1599" cy="1551.5456" fill="#F1F1F1" rx="260.6599" ry="54.532" style="stroke:#181818;stroke-width:0.5;"/><text fill="#000000" font-family="sans-serif" font-size="20" lengthAdjust="spacing" textLength="490" x="372.1599" y="1556.4695">I want to receive updates about my appointment</text></g><g id="elem_US006"><ellipse cx="617.1952" cy="3203.7527" fill="#F1F1F1" rx="109.1952" ry="24.239" style="stroke:#181818;stroke-width:0.5;"/><text fill="#000000" font-family="sans-serif" font-size="20" lengthAdjust="spacing" textLength="160" x="534.1952" y="3210.2849">Edit mt account</text></g><g id="elem_US007"><ellipse cx="616.899" cy="1697.5935" fill="#F1F1F1" rx="270.899" ry="56.5798" style="stroke:#181818;stroke-width:0.5;"/><text fill="#000000" font-family="sans-serif" font-size="20" lengthAdjust="spacing" textLength="511" x="361.399" y="1702.5173">I want to receive reminders about my appointment</text></g><g id="elem_US008"><ellipse cx="616.9624" cy="3404.5062" fill="#F1F1F1" rx="120.4624" ry="26.4925" style="stroke:#181818;stroke-width:0.5;"/><text fill="#000000" font-family="sans-serif" font-size="20" lengthAdjust="spacing" textLength="188" x="519.9624" y="3411.0384">Delete my account</text></g><g id="elem_US009"><ellipse cx="617.1762" cy="1873.5489" fill="#F1F1F1" rx="410.6762" ry="84.5352" style="stroke:#181818;stroke-width:0.5;"/><text fill="#000000" font-family="sans-serif" font-size="20" lengthAdjust="spacing" textLength="795" x="219.6762" y="1878.4727">I want to receive notifications when my favorite salons/stylists have promotions</text></g><g id="elem_US010"><ellipse cx="617.1333" cy="117.3403" fill="#F1F1F1" rx="139.6333" ry="30.3267" style="stroke:#181818;stroke-width:0.5;"/><text fill="#000000" font-family="sans-serif" font-size="20" lengthAdjust="spacing" textLength="233" x="497.6333" y="123.8726">Access the activity logs</text></g><g id="elem_US011"><ellipse cx="616.9715" cy="2812.708" fill="#F1F1F1" rx="431.4715" ry="88.6943" style="stroke:#181818;stroke-width:0.5;"/><text fill="#000000" font-family="sans-serif" font-size="20" lengthAdjust="spacing" textLength="837" x="198.4715" y="2817.6318">I want to receive notifications when a client cancels or reschedules an appointment</text></g><g id="elem_US012"><ellipse cx="616.8343" cy="2150.2805" fill="#F1F1F1" rx="174.3343" ry="37.2669" style="stroke:#181818;stroke-width:0.5;"/><text fill="#000000" font-family="sans-serif" font-size="20" lengthAdjust="spacing" textLength="310" x="459.5075" y="2156.4917">Verify my personal information</text></g><g id="elem_US013"><ellipse cx="616.8429" cy="2273.3823" fill="#F1F1F1" rx="237.3429" ry="49.8686" style="stroke:#181818;stroke-width:0.5;"/><text fill="#000000" font-family="sans-serif" font-size="20" lengthAdjust="spacing" textLength="442" x="395.8429" y="2278.3061">I want to make online payments for services</text></g><g id="elem_US014"><ellipse cx="616.9032" cy="2448.6943" fill="#F1F1F1" rx="438.9032" ry="90.1806" style="stroke:#181818;stroke-width:0.5;"/><text fill="#000000" font-family="sans-serif" font-size="20" lengthAdjust="spacing" textLength="852" x="190.9032" y="2453.6181">I want to receive a summary of my appointment and payment receipts after services.</text></g><g id="elem_US015"><ellipse cx="617.1575" cy="645.6452" fill="#F1F1F1" rx="281.1575" ry="58.6315" style="stroke:#181818;stroke-width:0.5;"/><text fill="#000000" font-family="sans-serif" font-size="20" lengthAdjust="spacing" textLength="532" x="351.1575" y="650.569">I want to leave reviews for a hair salon and hairstylist</text></g><g id="elem_US016"><ellipse cx="616.8242" cy="831.4785" fill="#F1F1F1" rx="447.8242" ry="91.9648" style="stroke:#181818;stroke-width:0.5;"/><text fill="#000000" font-family="sans-serif" font-size="20" lengthAdjust="spacing" textLength="870" x="181.8242" y="836.4023">Search for nearby hair salons and hair stylists by proximity,reviews, services and prices</text></g><g id="elem_US017"><ellipse cx="616.9102" cy="1031.4957" fill="#F1F1F1" rx="350.4102" ry="72.482" style="stroke:#181818;stroke-width:0.5;"/><text fill="#000000" font-family="sans-serif" font-size="20" lengthAdjust="spacing" textLength="673" x="280.4102" y="1036.4195">I want to save my facorite salons and stylists for quickerr sheduling</text></g><g id="elem_US018"><ellipse cx="616.8509" cy="1177.5839" fill="#F1F1F1" rx="180.8509" ry="38.5702" style="stroke:#181818;stroke-width:0.5;"/><text fill="#000000" font-family="sans-serif" font-size="20" lengthAdjust="spacing" textLength="324" x="453.4111" y="1183.3389">Schedule a haircut appointment</text></g><g id="elem_US019"><ellipse cx="617.0493" cy="1289.5235" fill="#F1F1F1" rx="178.0493" ry="38.0099" style="stroke:#181818;stroke-width:0.5;"/><text fill="#000000" font-family="sans-serif" font-size="20" lengthAdjust="spacing" textLength="318" x="456.2375" y="1295.4747">Cancel my haircut appointment</text></g><g id="elem_US020"><ellipse cx="616.9475" cy="4253.5032" fill="#F1F1F1" rx="172.9475" ry="36.9895" style="stroke:#181818;stroke-width:0.5;"/><text fill="#000000" font-family="sans-serif" font-size="20" lengthAdjust="spacing" textLength="307" x="460.9216" y="4259.8114">I want to view my sales history</text></g><g id="elem_US021"><ellipse cx="616.759" cy="2035.5655" fill="#F1F1F1" rx="200.759" ry="42.5518" style="stroke:#181818;stroke-width:0.5;"/><text fill="#000000" font-family="sans-serif" font-size="20" lengthAdjust="spacing" textLength="366" x="433.759" y="2040.4893">Reschedule my haircut appointment</text></g><g id="elem_US022"><ellipse cx="616.8752" cy="4505.2887" fill="#F1F1F1" rx="271.8752" ry="56.775" style="stroke:#181818;stroke-width:0.5;"/><text fill="#000000" font-family="sans-serif" font-size="20" lengthAdjust="spacing" textLength="513" x="360.3752" y="4510.2125">I want to analyze reviews for service improvements</text></g><g id="elem_US023"><ellipse cx="616.9081" cy="3302.4953" fill="#F1F1F1" rx="187.9081" ry="39.9816" style="stroke:#181818;stroke-width:0.5;"/><text fill="#000000" font-family="sans-serif" font-size="20" lengthAdjust="spacing" textLength="339" x="446.8487" y="3307.7565">View my upcoming appointments</text></g><g id="elem_US024"><ellipse cx="617.1004" cy="3517.4338" fill="#F1F1F1" rx="245.1004" ry="51.4201" style="stroke:#181818;stroke-width:0.5;"/><text fill="#000000" font-family="sans-serif" font-size="20" lengthAdjust="spacing" textLength="458" x="388.1004" y="3522.3576">View the location of my service appointments</text></g><g id="elem_US025"><ellipse cx="616.7702" cy="2631.6677" fill="#F1F1F1" rx="276.2702" ry="57.654" style="stroke:#181818;stroke-width:0.5;"/><text fill="#000000" font-family="sans-serif" font-size="20" lengthAdjust="spacing" textLength="522" x="355.7702" y="2636.5915">I want to view my earnings from completed services</text></g><g id="elem_US026"><ellipse cx="617.0063" cy="3084.5149" fill="#F1F1F1" rx="288.0063" ry="60.0013" style="stroke:#181818;stroke-width:0.5;"/><text fill="#000000" font-family="sans-serif" font-size="20" lengthAdjust="spacing" textLength="546" x="344.0063" y="3089.4388">Be notified when a change is made to an appointment</text></g><g id="elem_US027"><ellipse cx="617.1056" cy="3777.3348" fill="#F1F1F1" rx="184.6056" ry="39.3211" style="stroke:#181818;stroke-width:0.5;"/><text fill="#000000" font-family="sans-serif" font-size="20" lengthAdjust="spacing" textLength="332" x="450.1438" y="3782.8271">Manage upcoming appointments</text></g><g id="elem_US028"><ellipse cx="617.1598" cy="3897.3456" fill="#F1F1F1" rx="214.6598" ry="45.332" style="stroke:#181818;stroke-width:0.5;"/><text fill="#000000" font-family="sans-serif" font-size="20" lengthAdjust="spacing" textLength="395" x="419.6598" y="3902.2695">I want to register products and services</text></g><g id="elem_US029"><ellipse cx="616.8484" cy="4020.6834" fill="#F1F1F1" rx="198.8484" ry="42.1697" style="stroke:#181818;stroke-width:0.5;"/><text fill="#000000" font-family="sans-serif" font-size="20" lengthAdjust="spacing" textLength="362" x="435.8484" y="4025.6072">Track the location of my hair stylists</text></g><g id="elem_US030"><ellipse cx="616.9628" cy="4139.7062" fill="#F1F1F1" rx="196.4628" ry="41.6926" style="stroke:#181818;stroke-width:0.5;"/><text fill="#000000" font-family="sans-serif" font-size="20" lengthAdjust="spacing" textLength="357" x="438.4628" y="4144.6301">I want to edit products and services</text></g><g id="elem_US031"><ellipse cx="616.9387" cy="4369.5014" fill="#F1F1F1" rx="207.9387" ry="43.9877" style="stroke:#181818;stroke-width:0.5;"/><text fill="#000000" font-family="sans-serif" font-size="20" lengthAdjust="spacing" textLength="381" x="426.4387" y="4374.4252">I want to delete products and serivces</text></g><g id="elem_US032"><ellipse cx="617.0856" cy="4646.4308" fill="#F1F1F1" rx="230.0856" ry="48.4171" style="stroke:#181818;stroke-width:0.5;"/><text fill="#000000" font-family="sans-serif" font-size="20" lengthAdjust="spacing" textLength="427" x="403.5856" y="4651.3546">I want to assign specific services to stylists</text></g><g id="elem_US033"><ellipse cx="617.2059" cy="4793.4548" fill="#F1F1F1" rx="302.7059" ry="62.9412" style="stroke:#181818;stroke-width:0.5;"/><text fill="#000000" font-family="sans-serif" font-size="20" lengthAdjust="spacing" textLength="576" x="329.2059" y="4798.3787">I want to manage the availability of my stylists (calendar)</text></g><g id="elem_US034"><ellipse cx="617.0852" cy="4935.3307" fill="#F1F1F1" rx="204.5852" ry="43.317" style="stroke:#181818;stroke-width:0.5;"/><text fill="#000000" font-family="sans-serif" font-size="20" lengthAdjust="spacing" textLength="374" x="430.0852" y="4940.2545">I want to add hair stylists to my salon</text></g><g id="elem_US035"><ellipse cx="616.9061" cy="3653.4949" fill="#F1F1F1" rx="235.4061" ry="49.4812" style="stroke:#181818;stroke-width:0.5;"/><text fill="#000000" font-family="sans-serif" font-size="20" lengthAdjust="spacing" textLength="438" x="397.9061" y="3658.4187">I want to remove hair stylists from my salon</text></g><!--entity AD--><g id="elem_AD"><ellipse cx="57.5" cy="225.5137" fill="#FFFFFF" rx="8" ry="8" style="stroke:#FF0000;stroke-width:2.0;"/><path d="M57.5,233.5137 L57.5,260.5137 M44.5,241.5137 L70.5,241.5137 M57.5,260.5137 L44.5,275.5137 M57.5,260.5137 L70.5,275.5137 " fill="none" style="stroke:#FF0000;stroke-width:2.0;"/><text fill="#000000" font-family="sans-serif" font-size="20" lengthAdjust="spacing" textLength="66" x="24.5" y="297.0781">Admin</text></g><!--entity CL--><g id="elem_CL"><ellipse cx="57.5" cy="1752.5137" fill="#FFFFFF" rx="8" ry="8" style="stroke:#0000FF;stroke-width:2.0;"/><path d="M57.5,1760.5137 L57.5,1787.5137 M44.5,1768.5137 L70.5,1768.5137 M57.5,1787.5137 L44.5,1802.5137 M57.5,1787.5137 L70.5,1802.5137 " fill="none" style="stroke:#0000FF;stroke-width:2.0;"/><text fill="#000000" font-family="sans-serif" font-size="20" lengthAdjust="spacing" textLength="59" x="28" y="1824.0781">Client</text></g><!--entity BR--><g id="elem_BR"><ellipse cx="57.5" cy="3111.5137" fill="#FFFFFF" rx="8" ry="8" style="stroke:#008000;stroke-width:2.0;"/><path d="M57.5,3119.5137 L57.5,3146.5137 M44.5,3127.5137 L70.5,3127.5137 M57.5,3146.5137 L44.5,3161.5137 M57.5,3146.5137 L70.5,3161.5137 " fill="none" style="stroke:#008000;stroke-width:2.0;"/><text fill="#000000" font-family="sans-serif" font-size="20" lengthAdjust="spacing" textLength="103" x="6" y="3183.0781">HairStylist</text></g><!--entity S--><g id="elem_S"><ellipse cx="57.5" cy="4046.5137" fill="#FFFFFF" rx="8" ry="8" style="stroke:#800080;stroke-width:2.0;"/><path d="M57.5,4054.5137 L57.5,4081.5137 M44.5,4062.5137 L70.5,4062.5137 M57.5,4081.5137 L44.5,4096.5137 M57.5,4081.5137 L70.5,4096.5137 " fill="none" style="stroke:#800080;stroke-width:2.0;"/><text fill="#000000" font-family="sans-serif" font-size="20" lengthAdjust="spacing" textLength="56" x="29.5" y="4118.0781">Salon</text></g><!--link AD to US001--><g id="link_AD_US001"><path d="M90.88,258.5137 C125.37,258.5137 183.97,258.5137 249.81,258.5137 " fill="none" id="AD-to-US001" style="stroke:#181818;stroke-width:1.0;"/><polygon fill="#181818" points="254.97,258.5137,245.97,254.5137,249.97,258.5137,245.97,262.5137,254.97,258.5137" style="stroke:#181818;stroke-width:1.0;"/></g><!--link AD to US002--><g id="link_AD_US002"><path d="M90.02,301.9337 C104.85,319.4537 123.92,338.3637 145,350.5137 C181.18,371.3637 221.08,388.2637 261.88,401.9637 " fill="none" id="AD-to-US002" style="stroke:#181818;stroke-width:1.0;"/><polygon fill="#181818" points="266.86,403.6137,259.5928,396.9663,262.118,402.0282,257.0561,404.5535,266.86,403.6137" style="stroke:#181818;stroke-width:1.0;"/></g><!--link CL to US003--><g id="link_CL_US003"><path d="M64.81,1742.4637 C76.84,1666.6637 105.41,1514.1237 145,1479.5137 C211.99,1420.9537 306.01,1399.8137 392.44,1394.9737 " fill="none" id="CL-to-US003" style="stroke:#181818;stroke-width:1.0;"/><polygon fill="#181818" points="397.6,1394.7037,388.4059,1391.1725,392.6066,1394.9612,388.818,1399.1619,397.6,1394.7037" style="stroke:#181818;stroke-width:1.0;"/></g><!--link CL to US004--><g id="link_CL_US004"><path d="M58.58,1828.8337 C59.37,2026.8537 67.33,2839.5137 145,2918.5137 C244.9,3020.1137 425.72,3004.2137 531.9,2983.4037 " fill="none" id="CL-to-US004" style="stroke:#181818;stroke-width:1.0;"/><polygon fill="#181818" points="536.9,2982.4137,527.294,2980.2402,531.9955,2983.386,528.8497,2988.0875,536.9,2982.4137" style="stroke:#181818;stroke-width:1.0;"/></g><!--link S to US004--><g id="link_S_US004"><path d="M60.43,4036.4737 C69.41,3840.8837 108.15,3043.8337 145,3006.5137 C244.97,2905.2637 425.35,2920.9037 531.51,2941.5937 " fill="none" id="S-to-US004" style="stroke:#181818;stroke-width:1.0;"/><polygon fill="#181818" points="536.51,2942.5837,528.4565,2936.9143,531.6049,2941.6141,526.9052,2944.7624,536.51,2942.5837" style="stroke:#181818;stroke-width:1.0;"/></g><!--link BR to US004--><g id="link_BR_US004"><path d="M73.49,3101.3037 C86.98,3069.4337 110.09,3028.0137 145,3006.5137 C255.89,2938.2237 410.12,2937.6537 511.45,2947.1037 " fill="none" id="BR-to-US004" style="stroke:#181818;stroke-width:1.0;"/><polygon fill="#181818" points="516.54,2947.5937,507.9703,2942.7399,511.5636,2947.1089,507.1946,2950.7022,516.54,2947.5937" style="stroke:#181818;stroke-width:1.0;"/></g><!--link CL to US005--><g id="link_CL_US005"><path d="M69.67,1742.3637 C81.76,1704.7437 104.93,1651.8837 145,1623.5137 C204.67,1581.2737 279.27,1559.6137 351.39,1549.3637 " fill="none" id="CL-to-US005" style="stroke:#181818;stroke-width:1.0;"/><polygon fill="#181818" points="356.58,1548.6437,347.1157,1545.9183,351.6274,1549.3307,348.215,1553.8424,356.58,1548.6437" style="stroke:#181818;stroke-width:1.0;"/></g><!--link CL to US006--><g id="link_CL_US006"><path d="M59.65,1828.7937 C65.91,2057.0537 97.35,3112.5937 145,3161.5137 C247.49,3266.7237 436.77,3245.3937 541.47,3223.0037 " fill="none" id="CL-to-US006" style="stroke:#181818;stroke-width:1.0;"/><polygon fill="#181818" points="546.39,3221.9337,536.7476,3219.9275,541.5031,3222.9911,538.4395,3227.7465,546.39,3221.9337" style="stroke:#181818;stroke-width:1.0;"/></g><!--link S to US006--><g id="link_S_US006"><path d="M59.82,4036.2937 C65.2,3873.0737 88.05,3300.5337 145,3244.5137 C249.4,3141.8137 437.06,3162.3537 541.21,3184.2337 " fill="none" id="S-to-US006" style="stroke:#181818;stroke-width:1.0;"/><polygon fill="#181818" points="546.11,3185.2737,538.1433,3179.4831,541.2202,3184.2299,536.4733,3187.3068,546.11,3185.2737" style="stroke:#181818;stroke-width:1.0;"/></g><!--link BR to US006--><g id="link_BR_US006"><path d="M109.12,3155.3837 C120.86,3157.6537 133.33,3159.8537 145,3161.5137 C268.16,3179.0537 410.55,3190.5537 506.25,3197.0037 " fill="none" id="BR-to-US006" style="stroke:#181818;stroke-width:1.0;"/><polygon fill="#181818" points="511.34,3197.3437,502.6225,3192.7605,506.3508,3197.0149,502.0964,3200.7432,511.34,3197.3437" style="stroke:#181818;stroke-width:1.0;"/></g><!--link CL to US007--><g id="link_CL_US007"><path d="M87.33,1780.8137 C104.15,1778.0837 125.77,1774.5837 145,1771.5137 C226.38,1758.5337 315.71,1744.4537 394.49,1732.1037 " fill="none" id="CL-to-US007" style="stroke:#181818;stroke-width:1.0;"/><polygon fill="#181818" points="399.66,1731.2937,390.1508,1728.7293,394.7198,1732.0647,391.3845,1736.6337,399.66,1731.2937" style="stroke:#181818;stroke-width:1.0;"/></g><!--link CL to US008--><g id="link_CL_US008"><path d="M60.11,1828.8137 C69.49,2079.1637 117.7,3331.0937 145,3359.5137 C243.86,3462.4437 425.48,3446.3937 531.98,3425.4437 " fill="none" id="CL-to-US008" style="stroke:#181818;stroke-width:1.0;"/><polygon fill="#181818" points="537,3424.4437,527.3879,3422.2972,532.0982,3425.4297,528.9656,3430.1401,537,3424.4437" style="stroke:#181818;stroke-width:1.0;"/></g><!--link BR to US008--><g id="link_BR_US008"><path d="M62.74,3187.5837 C70.16,3237.6737 90.37,3318.6937 145,3359.5137 C253.22,3440.3837 416.8,3435.9137 519.93,3422.3837 " fill="none" id="BR-to-US008" style="stroke:#181818;stroke-width:1.0;"/><polygon fill="#181818" points="525.11,3421.6937,515.6624,3418.9111,520.1534,3422.3507,516.7137,3426.8417,525.11,3421.6937" style="stroke:#181818;stroke-width:1.0;"/></g><!--link S to US008--><g id="link_S_US008"><path d="M57.78,4036.2737 C56.6,3907.3237 60.56,3529.3937 145,3448.5137 C247.02,3350.7937 424.6,3364.5337 530.13,3384.0637 " fill="none" id="S-to-US008" style="stroke:#181818;stroke-width:1.0;"/><polygon fill="#181818" points="535.1,3384.9937,526.9835,3379.415,530.1843,3384.0791,525.5202,3387.28,535.1,3384.9937" style="stroke:#181818;stroke-width:1.0;"/></g><!--link CL to US009--><g id="link_CL_US009"><path d="M87.3,1790.0637 C127.01,1796.3237 203.06,1808.3337 285.37,1821.3237 " fill="none" id="CL-to-US009" style="stroke:#181818;stroke-width:1.0;"/><polygon fill="#181818" points="290.8,1822.1837,282.5396,1816.8204,285.862,1821.3987,281.2836,1824.7212,290.8,1822.1837" style="stroke:#181818;stroke-width:1.0;"/></g><!--link AD to US010--><g id="link_AD_US010"><path d="M87.65,215.2337 C102.53,196.7237 122.3,176.8037 145,165.5137 C249.47,113.5437 382.91,104.4537 481.07,106.6637 " fill="none" id="AD-to-US010" style="stroke:#181818;stroke-width:1.0;"/><polygon fill="#181818" points="486.3,106.7937,477.4058,102.5636,481.3017,106.6651,477.2002,110.561,486.3,106.7937" style="stroke:#181818;stroke-width:1.0;"/></g><!--link BR to US011--><g id="link_BR_US011"><path d="M62.87,3101.4137 C70.45,3050.0737 90.83,2965.3837 145,2918.5137 C173.36,2893.9737 206.19,2874.7737 241.07,2859.8037 " fill="none" id="BR-to-US011" style="stroke:#181818;stroke-width:1.0;"/><polygon fill="#181818" points="245.78,2857.8137,235.9328,2857.6306,241.174,2859.7591,239.0455,2865.0002,245.78,2857.8137" style="stroke:#181818;stroke-width:1.0;"/></g><!--link CL to US012--><g id="link_CL_US012"><path d="M64.55,1828.6137 C76.25,1905.3437 104.45,2060.8337 145,2095.5137 C233.37,2171.0837 367.6,2180.0137 470.19,2172.8237 " fill="none" id="CL-to-US012" style="stroke:#181818;stroke-width:1.0;"/><polygon fill="#181818" points="475.36,2172.4437,466.0877,2169.1234,470.3738,2172.8151,466.682,2177.1013,475.36,2172.4437" style="stroke:#181818;stroke-width:1.0;"/></g><!--link CL to US013--><g id="link_CL_US013"><path d="M61.25,1828.5937 C68.33,1925.1237 90.61,2154.2737 145,2205.5137 C210.6,2267.3037 305.8,2288.7837 393.48,2293.0837 " fill="none" id="CL-to-US013" style="stroke:#181818;stroke-width:1.0;"/><polygon fill="#181818" points="398.71,2293.3237,389.9026,2288.9157,393.7152,2293.0947,389.5363,2296.9073,398.71,2293.3237" style="stroke:#181818;stroke-width:1.0;"/></g><!--link CL to US014--><g id="link_CL_US014"><path d="M59.19,1828.9037 C61.97,1946.3037 75.87,2266.3037 145,2340.5137 C168.98,2366.2537 197.75,2386.4637 229.08,2402.2537 " fill="none" id="CL-to-US014" style="stroke:#181818;stroke-width:1.0;"/><polygon fill="#181818" points="233.72,2404.5537,227.4203,2396.9831,229.2365,2402.3405,223.8791,2404.1567,233.72,2404.5537" style="stroke:#181818;stroke-width:1.0;"/></g><!--link CL to US015--><g id="link_CL_US015"><path d="M58.93,1742.4137 C61.21,1552.6637 74.68,797.6137 145,721.5137 C195.02,667.3837 267.18,641.6937 340.05,631.2237 " fill="none" id="CL-to-US015" style="stroke:#181818;stroke-width:1.0;"/><polygon fill="#181818" points="345.29,630.5037,335.8268,627.7746,340.3372,631.1888,336.923,635.6992,345.29,630.5037" style="stroke:#181818;stroke-width:1.0;"/></g><!--link CL to US016--><g id="link_CL_US016"><path d="M60.03,1742.3537 C66.21,1578.6437 91.63,1002.1537 145,941.5137 C167.38,916.0837 194.41,895.9437 224.05,880.0437 " fill="none" id="CL-to-US016" style="stroke:#181818;stroke-width:1.0;"/><polygon fill="#181818" points="228.83,877.5237,219.0025,878.1718,224.4045,879.8506,222.7256,885.2526,228.83,877.5237" style="stroke:#181818;stroke-width:1.0;"/></g><!--link CL to US017--><g id="link_CL_US017"><path d="M57.81,1742.3037 C56.61,1609.5737 60.29,1211.4037 145,1121.5137 C178.47,1086.0037 221.3,1062.0337 267.45,1046.1837 " fill="none" id="CL-to-US017" style="stroke:#181818;stroke-width:1.0;"/><polygon fill="#181818" points="272.22,1044.5837,262.4127,1043.6794,267.4838,1046.1863,264.9769,1051.2573,272.22,1044.5837" style="stroke:#181818;stroke-width:1.0;"/></g><!--link CL to US018--><g id="link_CL_US018"><path d="M58.81,1742.3837 C60.63,1624.9437 72.27,1303.5937 145,1233.5137 C229.7,1151.8937 366.51,1143.9237 470.92,1152.8237 " fill="none" id="CL-to-US018" style="stroke:#181818;stroke-width:1.0;"/><polygon fill="#181818" points="476.18,1153.2937,467.5692,1148.5131,471.1996,1152.8513,466.8614,1156.4817,476.18,1153.2937" style="stroke:#181818;stroke-width:1.0;"/></g><!--link CL to US019--><g id="link_CL_US019"><path d="M60.73,1742.1737 C66.82,1642.0137 87.33,1398.9637 145,1345.5137 C231.04,1265.7537 367.19,1257.4337 471.03,1265.7337 " fill="none" id="CL-to-US019" style="stroke:#181818;stroke-width:1.0;"/><polygon fill="#181818" points="476.26,1266.1637,467.6221,1261.4321,471.2772,1265.7496,466.9597,1269.4047,476.26,1266.1637" style="stroke:#181818;stroke-width:1.0;"/></g><!--link S to US020--><g id="link_S_US020"><path d="M78.42,4122.7637 C92.98,4149.2037 115.35,4181.1737 145,4198.5137 C236.02,4251.7537 353.86,4265.4837 448.91,4265.9137 " fill="none" id="S-to-US020" style="stroke:#181818;stroke-width:1.0;"/><polygon fill="#181818" points="453.99,4265.9237,445.0015,4261.898,448.99,4265.9094,444.9786,4269.8979,453.99,4265.9237" style="stroke:#181818;stroke-width:1.0;"/></g><!--link CL to US021--><g id="link_CL_US021"><path d="M65.62,1828.6437 C75.38,1873.0237 97.44,1940.4637 145,1975.5137 C225.02,2034.4937 334.17,2051.2137 427.25,2052.4137 " fill="none" id="CL-to-US021" style="stroke:#181818;stroke-width:1.0;"/><polygon fill="#181818" points="432.51,2052.4637,423.5563,2048.3611,427.5103,2052.4065,423.4649,2056.3606,432.51,2052.4637" style="stroke:#181818;stroke-width:1.0;"/></g><!--link S to US022--><g id="link_S_US022"><path d="M63.22,4122.7437 C73.35,4207.1137 99.96,4389.0937 145,4430.5137 C198.87,4480.0437 271.67,4504.3237 343.93,4514.8637 " fill="none" id="S-to-US022" style="stroke:#181818;stroke-width:1.0;"/><polygon fill="#181818" points="349.13,4515.6037,340.7798,4510.3812,344.1794,4514.9026,339.658,4518.3022,349.13,4515.6037" style="stroke:#181818;stroke-width:1.0;"/></g><!--link BR to US023--><g id="link_BR_US023"><path d="M84.85,3187.7037 C99.83,3208.3837 120.49,3231.4437 145,3244.5137 C230.61,3290.1837 337.14,3306.1137 427.21,3309.9937 " fill="none" id="BR-to-US023" style="stroke:#181818;stroke-width:1.0;"/><polygon fill="#181818" points="432.31,3310.2037,423.4771,3305.8472,427.314,3310.0038,423.1573,3313.8408,432.31,3310.2037" style="stroke:#181818;stroke-width:1.0;"/></g><!--link BR to US024--><g id="link_BR_US024"><path d="M64.92,3187.5637 C77.06,3262.9437 105.74,3414.1137 145,3448.5137 C208.33,3504.0037 295.86,3526.2537 378.29,3532.9337 " fill="none" id="BR-to-US024" style="stroke:#181818;stroke-width:1.0;"/><polygon fill="#181818" points="383.71,3533.3537,375.0453,3528.6714,378.7249,3532.968,374.4283,3536.6476,383.71,3533.3537" style="stroke:#181818;stroke-width:1.0;"/></g><!--link BR to US025--><g id="link_BR_US025"><path d="M60.92,3101.1537 C67.41,3001.5437 88.7,2760.7637 145,2706.5137 C197.26,2656.1537 268.94,2631.4937 340.63,2620.8237 " fill="none" id="BR-to-US025" style="stroke:#181818;stroke-width:1.0;"/><polygon fill="#181818" points="345.79,2620.0837,336.3104,2617.412,340.8414,2620.7988,337.4546,2625.3298,345.79,2620.0837" style="stroke:#181818;stroke-width:1.0;"/></g><!--link BR to US026--><g id="link_BR_US026"><path d="M109.45,3139.0337 C166.23,3132.9237 262.37,3122.5737 355.73,3112.5237 " fill="none" id="BR-to-US026" style="stroke:#181818;stroke-width:1.0;"/><polygon fill="#181818" points="360.74,3111.9837,351.359,3108.9843,355.7695,3112.5264,352.2274,3116.937,360.74,3111.9837" style="stroke:#181818;stroke-width:1.0;"/></g><!--link S to US027--><g id="link_S_US027"><path d="M60.5,4036.2837 C65.61,3980.2537 83.42,3883.9037 145,3834.5137 C230.54,3765.9137 354.49,3753.2437 453.76,3756.8937 " fill="none" id="S-to-US027" style="stroke:#181818;stroke-width:1.0;"/><polygon fill="#181818" points="458.77,3757.0937,449.9247,3752.7624,453.7734,3756.9081,449.6277,3760.7569,458.77,3757.0937" style="stroke:#181818;stroke-width:1.0;"/></g><!--link S to US028--><g id="link_S_US028"><path d="M78.52,4036.4337 C93.11,4010.0637 115.49,3978.1037 145,3960.5137 C220.73,3915.3637 315.32,3896.9337 399.82,3890.7737 " fill="none" id="S-to-US028" style="stroke:#181818;stroke-width:1.0;"/><polygon fill="#181818" points="404.85,3890.4237,395.5872,3887.0769,399.8628,3890.7809,396.1588,3895.0565,404.85,3890.4237" style="stroke:#181818;stroke-width:1.0;"/></g><!--link S to US029--><g id="link_S_US029"><path d="M85.77,4076.6237 C148.24,4070.0137 306.18,4053.3037 433.54,4039.8237 " fill="none" id="S-to-US029" style="stroke:#181818;stroke-width:1.0;"/><polygon fill="#181818" points="438.81,4039.2637,429.4375,4036.2376,433.838,4039.7923,430.2833,4044.1928,438.81,4039.2637" style="stroke:#181818;stroke-width:1.0;"/></g><!--link S to US030--><g id="link_S_US030"><path d="M85.77,4082.4437 C148.67,4089.2137 308.36,4106.4037 436.17,4120.1637 " fill="none" id="S-to-US030" style="stroke:#181818;stroke-width:1.0;"/><polygon fill="#181818" points="441.46,4120.7337,432.9333,4115.8046,436.488,4120.205,432.0875,4123.7597,441.46,4120.7337" style="stroke:#181818;stroke-width:1.0;"/></g><!--link S to US031--><g id="link_S_US031"><path d="M61.94,4122.9137 C68.6,4175.4437 88.07,4262.4537 145,4307.5137 C222.04,4368.4837 329.36,4386.1437 422.11,4387.5837 " fill="none" id="S-to-US031" style="stroke:#181818;stroke-width:1.0;"/><polygon fill="#181818" points="427.35,4387.6537,418.4081,4383.5255,422.3505,4387.5823,418.2938,4391.5247,427.35,4387.6537" style="stroke:#181818;stroke-width:1.0;"/></g><!--link S to US032--><g id="link_S_US032"><path d="M59.69,4122.8537 C63.63,4232.4537 80.04,4516.4737 145,4579.5137 C212.99,4645.4937 314.61,4665.7937 406.08,4668.1137 " fill="none" id="S-to-US032" style="stroke:#181818;stroke-width:1.0;"/><polygon fill="#181818" points="411.25,4668.2237,402.3318,4664.0445,406.251,4668.1237,402.1718,4672.0429,411.25,4668.2237" style="stroke:#181818;stroke-width:1.0;"/></g><!--link S to US033--><g id="link_S_US033"><path d="M58.04,4122.5937 C57.63,4251.1237 63.5,4628.1537 145,4712.5137 C188.81,4757.8537 248.11,4783.4237 309.84,4796.9437 " fill="none" id="S-to-US033" style="stroke:#181818;stroke-width:1.0;"/><polygon fill="#181818" points="315.05,4798.0637,307.0798,4792.2778,310.1595,4797.0228,305.4145,4800.1026,315.05,4798.0637" style="stroke:#181818;stroke-width:1.0;"/></g><!--link S to US034--><g id="link_S_US034"><path d="M60.14,4122.6937 C66.53,4280.4637 92.1,4819.4237 145,4873.5137 C220.99,4951.2237 343.54,4965.3537 444.59,4960.7737 " fill="none" id="S-to-US034" style="stroke:#181818;stroke-width:1.0;"/><polygon fill="#181818" points="449.69,4960.5337,440.5065,4956.975,444.6959,4960.7762,440.8947,4964.9656,449.69,4960.5337" style="stroke:#181818;stroke-width:1.0;"/></g><!--link S to US035--><g id="link_S_US035"><path d="M62.9,4036.2337 C72.57,3950.2837 98.57,3762.7237 145,3720.5137 C211.74,3659.8437 307.24,3638.7437 394.82,3634.4937 " fill="none" id="S-to-US035" style="stroke:#181818;stroke-width:1.0;"/><polygon fill="#181818" points="400.05,3634.2537,390.8763,3630.67,395.0552,3634.4827,391.2426,3638.6616,400.05,3634.2537" style="stroke:#181818;stroke-width:1.0;"/></g><!--SRC=[dLR1RkCs43rNNp58BosGtLfsuZYxG85iqg85sikwspjDZMqY5AcIbBFAel_U8INBOyMoWUOGc1BVlCUPDqFvPsKguKIfhNp60WfSYrg7Nwq9I_MAC9raML118tpn28-2_ZqfiI50bcbS1mWMdDfi0nJAeGpAcYmJCbW7Lmz5gSmL20yFJ_3zorO5_AYLmGyEY_JZ_ShgucF0h-73IWlvl0S-QeKc9EJZ7qV8bQxnBFGteTmoD5hv5l_fyn5-un3DsG1BeMqhUdc4h6fNwH7kB9vSc0rbAV8_ELl1jmpeh_OeOywk7XsAWDU0XGf0F0Lg30X2IbkRu65DpsGwjh-6BGK17uLu4ARerksfVDBsPJcPvDyTKophgh8k98IeAjs0gCEM8YefObtQ5_J8ElNQFeciGcjGf83Yk9PkNPjKIA5LK7WWd0u8VuSNOP83TWfVWBX890NsODTGDb64LIQK-rh66BDJQKcRsqpq6sz6oIZPg7O8TLKGbYIlR1t6-6u7ONw9-I_36xhvHJg7vEOYvUWSuTqWq5DRw1CdN5oaD3QeTLSz3ozKonXdBNPKGOhPEkIdlJ789eIfd2rj0lH4zmEY1odH-rGlChtQgT20jfiUa4_-ZpBH-HUaC1ArZovtwEKMYrh7CfbJ-Sg7BluRdLetyPmLvJgQ49GXdvQ9guUDUx4KpmZMn4Q5IZIHh6qlylTEoOEVyzd5OmhmTLaArxnrTEgKBdwxlo8UiGvuO7hVKusxMQD8veejrEeKhF_xzlTifiM0GrylKJYvJNX3FrVD-I42j86SybMLLFphZlsw5zuUpXrbQxn3V3n1CgRanan1UiAex9zQqINZI4OoXJARFlhTu3YTRRfaIEgtK-PP3AP9SbwKSWvqVtQA4PZaKmgs9DkwPW-ZY_08zhctzWM-QJx69yZSpUjnyRiAW2gfF3jCxkqZJGUjqkcjAsbfDcqu-m4qEm6AhKyNVdi9jDRU4v-CSNCfPMGvGmhe33H-WEHKSUeLRtfkUdiSwTD-bD3U_HJPqarA2V3KoGMsUJgPr_bng3yfdHkya8oxyOxVKBsfTodjHIr3vzwX_87X_d9q_P_AviaRUphglFHLS9PvDXd3TbyIGxJQSVIu1xrN6mE-GXa7-c42nBuUw9zDnsTkodswKNP2QR5IEjugdRNsC-07IPrb2k5-x4FEHeKLmv4LUPfsjlJmc_5wbjG-WmZ9d6zYt6R_PXbzeRvxztFxNSKNquo-GFUB6L_SP4jW2_hGF2pOjbk-c7FCd6FcVDiTNopujWKFiE3RxfdgVC8mUSwsvVmyEJzFpbNdN7NEjULSMyuLq5mzQADfUNX34v2zcJ9jD9pOWYUH1WLRyBnH3xC5JyYKAw26OGkkW6pC5ZE-u3KbN_m7]--></g></svg>